<svg width="1076" height="250" viewBox="0 0 1076 250" fill="none" xmlns="http://www.w3.org/2000/svg">
<rect width="1076" height="250" rx="20" fill="#02429A"/>
<mask id="mask0_701_2651" style="mask-type:alpha" maskUnits="userSpaceOnUse" x="0" y="0" width="1076" height="250">
<rect width="1076" height="250" rx="20" fill="#02429A"/>
</mask>
<g mask="url(#mask0_701_2651)">
<path d="M1141.46 287.133C1136.05 266.953 1117.68 252.079 1095.79 252.079C1094.53 252.079 1093.29 252.171 1092.05 252.266C1090.06 218.316 1061.97 191.378 1027.53 191.378C1018.77 191.378 1010.43 193.136 1002.82 196.29C985.028 164.504 951.054 143 912.037 143C867.613 143 829.716 170.871 814.826 210.075C807.08 206.798 798.564 204.985 789.622 204.985C759.93 204.985 734.973 225.005 727.355 252.266C726.139 252.175 724.919 252.079 723.675 252.079C701.788 252.079 683.418 266.953 678 287.133H1141.46Z" fill="#1577FD"/>
<path d="M435.464 287.133C430.047 266.953 411.68 252.079 389.789 252.079C388.526 252.079 387.286 252.171 386.046 252.266C384.057 218.316 355.975 191.378 321.526 191.378C312.771 191.378 304.431 193.136 296.817 196.29C279.028 164.504 245.054 143 206.037 143C161.613 143 123.716 170.871 108.826 210.075C101.08 206.798 92.5644 204.985 83.6223 204.985C53.9297 204.985 28.9733 225.005 21.3548 252.266C20.1389 252.175 18.9189 252.079 17.6751 252.079C-4.21165 252.079 -22.5821 266.953 -28 287.133H435.464Z" fill="#1577FD"/>
<path d="M872 286.719C869.917 266.685 852.987 251.063 832.402 251.063C827.126 251.063 822.098 252.114 817.492 253.976C811.538 234.165 793.178 219.726 771.429 219.726C767.557 219.726 763.814 220.232 760.207 221.095C748.468 189.376 717.952 166.761 682.15 166.761C637.271 166.761 600.709 202.297 599.018 246.762C581.265 251.796 568.081 267.624 567 286.716L872 286.719Z" fill="#4F99FD"/>
<path d="M166 286.719C163.917 266.685 146.987 251.063 126.402 251.063C121.126 251.063 116.098 252.114 111.492 253.976C105.538 234.165 87.178 219.726 65.4286 219.726C61.5574 219.726 57.8141 220.232 54.2069 221.095C42.4679 189.376 11.9523 166.761 -23.8502 166.761C-68.7291 166.761 -105.291 202.297 -106.982 246.762C-124.735 251.796 -137.919 267.624 -139 286.716L166 286.719Z" fill="#4F99FD"/>
<path d="M1025.16 290.761C1022.75 277.704 1011.31 267.811 997.552 267.811C991.725 267.811 986.312 269.586 981.824 272.625C978.343 264.921 970.609 259.551 961.606 259.551C952.222 259.551 944.217 265.383 940.97 273.613C935.913 268.218 928.752 264.823 920.795 264.736C914.992 247.322 898.571 234.761 879.207 234.761C859.283 234.761 842.474 248.058 837.143 266.258C834.276 265.271 831.203 264.728 828.001 264.728C813.181 264.728 801.051 276.21 800 290.761L1025.16 290.761Z" fill="#8ABBFE"/>
<g clip-path="url(#clip0_701_2651)">
<path d="M888.731 201.592C888.053 203.722 887.522 205.897 887.143 208.1L917.528 228.415L923.033 223.39L932.093 215.1L936.894 210.715L902.431 189.316C901.279 188.6 899.914 188.303 898.569 188.478C897.224 188.652 895.98 189.285 895.048 190.271C894.855 190.482 894.661 190.681 894.458 190.927C892.532 193.14 890.374 196.523 888.731 201.592Z" fill="#CBE9F7"/>
<path d="M784.137 166.421C792.512 169.647 800.519 173.757 808.023 178.68L1140.77 395.399L1060.69 363.683C1046.58 358.099 1033.08 351.089 1020.39 342.761L808.195 203.262C784.982 187.817 771.881 174.075 764.586 164.207C767.346 161.093 775.995 163.306 784.137 166.421Z" fill="#025CD4"/>
<path d="M763.177 148.177C799.158 148.834 837.24 174.702 837.24 174.702L1077.05 335.212L1159.75 396.314L1157.24 401.927L1140.76 395.396L808.023 178.681C800.525 173.762 792.525 169.655 784.157 166.43C776.01 163.325 767.365 161.102 764.605 164.217C762.485 161.39 760.562 158.421 758.851 155.329C758.445 154.587 758.242 153.751 758.261 152.905C758.279 152.059 758.52 151.233 758.957 150.509C759.395 149.785 760.015 149.189 760.756 148.78C761.496 148.37 762.331 148.163 763.177 148.177Z" fill="#8ABBFE"/>
<path d="M1077.07 339.59C1077.31 339.658 1077.55 339.645 1077.78 339.553C1078 339.461 1078.19 339.296 1078.3 339.084C1078.42 338.873 1078.46 338.628 1078.42 338.39C1078.38 338.151 1078.26 337.934 1078.08 337.774L826.953 170.605C826.726 170.514 826.476 170.504 826.243 170.577C826.01 170.649 825.809 170.8 825.674 171.003C825.539 171.206 825.478 171.449 825.501 171.692C825.524 171.935 825.63 172.162 825.801 172.336L1076.92 339.506L1077.07 339.59Z" fill="#02429A"/>
<path d="M888.731 201.592L923.033 223.39L930.078 227.866L934.298 216.522L932.089 215.098L894.458 190.927C892.532 193.14 890.374 196.523 888.731 201.592Z" fill="#8ABBFE"/>
<path d="M963.51 279.95L981.043 240.721L1089.92 139.473L1081.08 135.522L1057.84 140.075L908.482 222.387L901.317 239.447L963.51 279.95Z" fill="#CBE9F7"/>
<path d="M1012.66 202.441L1026.66 208.701C1027.29 208.983 1028.01 209.002 1028.65 208.756C1029.3 208.51 1029.82 208.019 1030.1 207.389C1030.38 206.76 1030.4 206.045 1030.15 205.401C1029.91 204.758 1029.41 204.238 1028.78 203.957L1014.78 197.697C1014.15 197.415 1013.43 197.396 1012.79 197.642C1012.15 197.888 1011.63 198.379 1011.35 199.009C1011.06 199.638 1011.04 200.353 1011.29 200.997C1011.54 201.64 1012.03 202.16 1012.66 202.441Z" fill="#CBE9F7"/>
<path d="M993.867 220.521L1007.87 226.781C1008.5 227.062 1009.22 227.082 1009.86 226.836C1010.5 226.59 1011.02 226.098 1011.31 225.469C1011.59 224.84 1011.61 224.125 1011.36 223.481C1011.11 222.837 1010.62 222.317 1009.99 222.036L995.987 215.776C995.358 215.495 994.643 215.475 993.999 215.721C993.355 215.967 992.836 216.459 992.554 217.088C992.273 217.717 992.253 218.433 992.5 219.076C992.746 219.72 993.237 220.24 993.867 220.521Z" fill="#CBE9F7"/>
<path d="M975.093 238.551L989.094 244.809C989.723 245.09 990.438 245.11 991.082 244.864C991.726 244.618 992.246 244.126 992.527 243.497C992.808 242.867 992.828 242.152 992.582 241.509C992.336 240.865 991.844 240.345 991.215 240.064L977.213 233.806C976.584 233.525 975.869 233.505 975.225 233.751C974.581 233.997 974.062 234.489 973.781 235.118C973.499 235.747 973.48 236.462 973.726 237.106C973.972 237.75 974.463 238.27 975.093 238.551Z" fill="#CBE9F7"/>
<path d="M803.884 158.158C803.443 158.447 802.935 158.617 802.409 158.654C801.883 158.691 801.357 158.593 800.879 158.369L784.957 151.253C784.957 151.253 791.773 152.932 794.972 154.175L803.884 158.158Z" fill="#02429A"/>
</g>
<g clip-path="url(#clip1_701_2651)">
<path d="M498.122 96.2533C496.398 96.2673 494.69 95.9262 493.104 95.251C491.592 94.6086 490.229 93.6599 489.102 92.4646C487.986 91.2674 487.14 89.8445 486.621 88.2922L491.007 86.4085C491.624 87.9536 492.663 89.2937 494.006 90.2753C495.29 91.2105 496.84 91.7088 498.428 91.697C499.252 91.7145 500.072 91.5646 500.837 91.2563C501.461 90.9976 502.006 90.5782 502.415 90.0408C502.793 89.5001 502.988 88.8522 502.97 88.1927C503.001 87.4288 502.73 86.6833 502.216 86.1171C501.585 85.4888 500.805 85.0314 499.949 84.7879L494.447 83.018C492.496 82.5041 490.739 81.429 489.393 79.9259C488.26 78.5522 487.659 76.816 487.701 75.0355C487.67 73.4955 488.098 71.9809 488.931 70.6854C489.776 69.4116 490.953 68.3938 492.336 67.7426C493.892 67.0146 495.594 66.6523 497.312 66.6835C498.946 66.6564 500.568 66.9611 502.081 67.5791C503.46 68.1509 504.71 68.9946 505.756 70.0599C506.797 71.1267 507.592 72.4074 508.088 73.8129L503.737 75.7463C503.257 74.4111 502.379 73.2551 501.221 72.434C500.077 71.6378 498.712 71.2202 497.319 71.2398C496.526 71.224 495.738 71.3767 495.009 71.6876C494.381 71.9473 493.841 72.3814 493.452 72.9386C493.053 73.528 492.857 74.2315 492.895 74.9422C492.932 75.6529 493.2 76.332 493.658 76.8765C494.295 77.5602 495.11 78.0525 496.011 78.2982L501.278 79.9472C503.235 80.4921 505.008 81.5555 506.41 83.0251C507.566 84.3706 508.177 86.0997 508.123 87.8728C508.153 89.4177 507.711 90.9349 506.858 92.223C505.975 93.5045 504.765 94.5257 503.354 95.18C501.714 95.9297 499.925 96.2968 498.122 96.2533Z" fill="white"/>
<path d="M512.352 95.7912L512.352 66.6479L517.435 66.6479L517.435 85.7475L515.508 85.1717L525.353 74.8649L531.623 74.8649L523.896 83.2881L531.779 95.7912L526.007 95.7912L519.141 84.9443L522.14 84.3258L515.835 91.1354L517.413 88.0221L517.413 95.7912L512.352 95.7912Z" fill="white"/>
<path d="M537.124 104.25C536.569 104.252 536.015 104.206 535.468 104.115C534.96 104.036 534.468 103.875 534.011 103.638L534.011 99.4446C534.345 99.5228 534.722 99.601 535.219 99.6721C535.658 99.7482 536.103 99.7887 536.549 99.7929C537.452 99.868 538.348 99.5846 539.044 99.0039C539.633 98.3907 540.114 97.6816 540.465 96.907L541.887 93.6728L541.809 97.9377L532.646 74.8647L538.07 74.8647L544.467 91.8674L542.541 91.8674L548.888 74.8647L554.347 74.8647L545.242 97.9022C544.764 99.133 544.113 100.289 543.308 101.335C542.59 102.239 541.676 102.968 540.636 103.468C539.541 103.995 538.339 104.262 537.124 104.25Z" fill="white"/>
<path d="M557.525 95.7914L557.525 67.1315L569.608 67.1315C571.275 67.0892 572.93 67.4245 574.449 68.1124C575.75 68.7093 576.841 69.6823 577.584 70.9059C578.345 72.2112 578.726 73.703 578.685 75.2134C578.69 76.5255 578.323 77.8119 577.626 78.9239C576.804 80.1661 575.631 81.136 574.257 81.7102L574.257 79.3006C575.497 79.735 576.636 80.4169 577.605 81.3051C578.387 82.037 578.982 82.9464 579.339 83.9564C579.671 84.9485 579.839 85.9881 579.837 87.0342C579.9 88.2423 579.689 89.4489 579.22 90.5641C578.751 91.6792 578.036 92.674 577.129 93.4742C575.333 95.0238 572.826 95.7962 569.608 95.7914L557.525 95.7914ZM562.792 78.2486L569.9 78.2486C570.841 78.2864 571.759 77.9489 572.452 77.3103C572.771 76.9907 573.021 76.6086 573.186 76.1878C573.352 75.7671 573.428 75.3168 573.411 74.8651C573.432 74.4225 573.357 73.9807 573.191 73.5697C573.026 73.1587 572.773 72.7884 572.452 72.4839C571.738 71.8662 570.814 71.5479 569.871 71.5954L562.763 71.5954L562.792 78.2486ZM562.792 91.1712L570.177 91.1712C571.368 91.2314 572.535 90.8261 573.432 90.041C573.837 89.652 574.154 89.1815 574.362 88.6606C574.57 88.1397 574.665 87.5805 574.641 87.02C574.664 86.4576 574.569 85.8965 574.36 85.3735C574.152 84.8505 573.836 84.3773 573.432 83.9848C572.989 83.5907 572.471 83.288 571.91 83.0941C571.349 82.9001 570.755 82.8188 570.163 82.8547L562.777 82.8547L562.792 91.1712Z" fill="white"/>
<path d="M590.051 96.2536C588.741 96.2877 587.438 96.0455 586.227 95.5428C585.192 95.1 584.313 94.3573 583.704 93.4104C583.104 92.4636 582.797 91.3607 582.822 90.2402C582.804 89.1552 583.076 88.085 583.611 87.141C584.191 86.175 585.021 85.3841 586.014 84.8522C587.282 84.1788 588.662 83.7428 590.087 83.5656L596.897 82.4497L596.897 86.2951L591.054 87.3329C590.23 87.4284 589.449 87.7535 588.8 88.2712C588.56 88.5007 588.371 88.7797 588.249 89.0889C588.126 89.3981 588.072 89.7303 588.09 90.0625C588.079 90.3923 588.148 90.7198 588.292 91.017C588.435 91.3141 588.649 91.5719 588.914 91.7684C589.509 92.2088 590.236 92.4344 590.976 92.4081C591.947 92.4247 592.906 92.1922 593.762 91.7329C594.552 91.3021 595.201 90.6531 595.631 89.8634C596.065 89.0756 596.291 88.1898 596.285 87.2903L596.285 81.8668C596.293 81.4366 596.203 81.0103 596.022 80.62C595.841 80.2297 595.574 79.8856 595.24 79.6135C594.461 78.9837 593.477 78.6625 592.475 78.7108C591.458 78.6998 590.462 79.0107 589.632 79.5993C588.816 80.1623 588.182 80.95 587.805 81.8668L583.69 79.8694C584.097 78.7788 584.763 77.8033 585.63 77.0262C586.544 76.1993 587.608 75.5551 588.765 75.1283C590.018 74.6508 591.348 74.4097 592.689 74.4175C594.252 74.3834 595.804 74.7067 597.224 75.3629C598.47 75.9367 599.531 76.8476 600.287 77.9929C601.024 79.1543 601.404 80.5059 601.382 81.881L601.382 95.7916L596.619 95.7916L596.619 92.2375L597.693 92.1949C597.177 93.0432 596.52 93.7979 595.752 94.4268C595.002 95.0542 594.141 95.5362 593.215 95.8485C592.188 96.1505 591.121 96.2873 590.051 96.2536Z" fill="white"/>
<path d="M613.977 96.253C611.92 96.3011 609.893 95.7451 608.149 94.6537C606.538 93.6497 605.323 92.1208 604.708 90.3249L608.511 88.5407C608.997 89.6522 609.776 90.6105 610.764 91.3129C611.705 91.9723 612.829 92.3203 613.977 92.308C614.736 92.3437 615.485 92.1289 616.11 91.6967C616.363 91.512 616.569 91.2689 616.708 90.9881C616.848 90.7072 616.918 90.3969 616.913 90.0832C616.928 89.7141 616.812 89.3515 616.586 89.0596C616.351 88.7658 616.059 88.5238 615.726 88.3488C615.332 88.1435 614.918 87.9814 614.489 87.8655L611.07 86.9059C609.539 86.5467 608.152 85.7342 607.089 84.5744C606.188 83.5368 605.702 82.2026 605.725 80.8284C605.701 79.6316 606.043 78.456 606.706 77.4592C607.392 76.4738 608.336 75.6966 609.435 75.213C610.698 74.6524 612.069 74.3757 613.451 74.4027C615.295 74.3679 617.11 74.8611 618.683 75.8243C620.181 76.7552 621.321 78.1655 621.917 79.8262L618.072 81.6316C617.725 80.7073 617.089 79.9195 616.259 79.3855C615.415 78.8334 614.424 78.5462 613.416 78.5609C612.707 78.5205 612.005 78.7154 611.418 79.1154C611.185 79.2924 610.999 79.5233 610.875 79.7883C610.752 80.0532 610.694 80.3443 610.708 80.6365C610.703 80.981 610.81 81.3177 611.013 81.5961C611.236 81.9043 611.534 82.1493 611.88 82.3069C612.296 82.5078 612.726 82.6766 613.167 82.8116L616.515 83.8067C618.026 84.2042 619.401 85.0023 620.495 86.1169C621.436 87.1429 621.946 88.4922 621.917 89.8842C621.937 91.0714 621.589 92.2358 620.922 93.2179C620.219 94.2045 619.261 94.9811 618.15 95.464C616.832 96.0259 615.409 96.2951 613.977 96.253Z" fill="white"/>
<path d="M635.714 96.2535C633.72 96.2979 631.752 95.7912 630.027 94.7892C628.425 93.8421 627.115 92.4723 626.239 90.83C625.332 89.1265 624.868 87.2225 624.888 85.2928C624.862 83.3332 625.352 81.4013 626.31 79.6916C627.195 78.1035 628.475 76.7713 630.027 75.8248C631.631 74.8674 633.47 74.3752 635.337 74.4031C636.821 74.3728 638.294 74.6486 639.666 75.2135C640.864 75.7266 641.939 76.4873 642.822 77.4454C643.697 78.3971 644.378 79.5102 644.827 80.7223C645.3 81.9836 645.54 83.3202 645.537 84.6673C645.537 85.0511 645.537 85.4278 645.481 85.7975C645.443 86.1448 645.372 86.4877 645.267 86.821L629.089 86.821L629.089 82.9045L642.403 82.9045L639.979 84.7099C640.239 83.6693 640.192 82.5756 639.844 81.561C639.523 80.6705 638.931 79.9025 638.152 79.3646C637.311 78.808 636.317 78.5272 635.309 78.5614C634.304 78.5366 633.315 78.8222 632.479 79.3793C631.642 79.9364 630.997 80.738 630.632 81.6747C630.187 82.8381 630.024 84.0899 630.155 85.3283C630.032 86.489 630.211 87.6618 630.674 88.7331C631.09 89.6823 631.788 90.4812 632.672 91.0219C633.596 91.5695 634.654 91.8477 635.728 91.8251C636.756 91.8624 637.774 91.6165 638.671 91.1143C639.466 90.6379 640.123 89.9615 640.576 89.1525L644.656 91.1499C644.229 92.1716 643.57 93.0795 642.73 93.8012C641.816 94.5974 640.76 95.2125 639.616 95.6138C638.362 96.05 637.042 96.2664 635.714 96.2535Z" fill="white"/>
<g clip-path="url(#clip2_701_2651)">
<path d="M460.348 77.9705L447.476 80.9559L450.828 75.9589L463.475 69.2915L460.348 77.9705Z" fill="white"/>
<path d="M478.385 53.1424C476.213 53.7087 474.163 54.6723 472.335 55.9857C471.977 63.3497 470.515 67.117 469.138 69.0433C469.018 69.1872 468.852 69.285 468.669 69.3203C468.486 69.3556 468.296 69.3263 468.132 69.2373C467.967 69.1484 467.838 69.0051 467.766 68.8314C467.693 68.6577 467.681 68.464 467.733 68.2827C468.628 65.3645 468.983 62.3041 468.78 59.2554C467.335 60.9127 466.172 62.8005 465.337 64.8424C464.376 70.0566 462.793 75.1334 460.622 79.9614L445.565 87.8656L442.214 92.8413L454.545 89.9981C453.149 91.7367 451.576 93.3211 449.851 94.725C445.151 97.9805 437.675 99.2031 431 82.8544C431 82.8544 434.97 112.708 453.154 104.285C465.646 98.5278 473.684 87.7163 478.609 75.1421C482.101 66.264 485.172 51.3938 478.385 53.1424ZM462.161 86.5506L461.971 86.8563C461.874 87.016 461.718 87.1303 461.538 87.1742C461.358 87.2182 461.167 87.1882 461.009 87.0908C460.851 86.9923 460.738 86.8347 460.695 86.6523C460.651 86.4698 460.681 86.2774 460.777 86.117L460.953 85.8185C461.055 85.6762 461.206 85.5773 461.376 85.541C461.546 85.5047 461.724 85.5336 461.874 85.622C462.024 85.7105 462.137 85.8522 462.19 86.0198C462.243 86.1874 462.233 86.3689 462.161 86.5293L462.161 86.5506ZM464.62 81.8024L464.374 82.3426C464.317 82.4636 464.228 82.5658 464.116 82.6375C464.004 82.7092 463.874 82.7474 463.742 82.7478C463.637 82.7487 463.534 82.7243 463.44 82.6767C463.271 82.5965 463.141 82.4519 463.078 82.2746C463.015 82.0974 463.024 81.9019 463.103 81.7313L463.349 81.2053C463.427 81.0353 463.568 80.9033 463.741 80.838C463.915 80.7728 464.107 80.7796 464.276 80.857C464.441 80.9359 464.568 81.0763 464.633 81.2487C464.697 81.4211 464.692 81.6119 464.62 81.7811L464.62 81.8024ZM466.609 76.8267L466.412 77.3882C466.362 77.5243 466.272 77.6415 466.153 77.7241C466.035 77.8067 465.895 77.8507 465.752 77.8503C465.668 77.8494 465.585 77.835 465.506 77.8076C465.419 77.7752 465.339 77.7257 465.271 77.662C465.203 77.5983 465.148 77.5216 465.11 77.4364C465.071 77.3512 465.05 77.2591 465.047 77.1654C465.043 77.0718 465.058 76.9784 465.091 76.8907L465.288 76.3505C465.319 76.2621 465.366 76.1808 465.428 76.1111C465.49 76.0414 465.565 75.9848 465.648 75.9445C465.732 75.9042 465.823 75.8811 465.915 75.8763C466.008 75.8716 466.1 75.8853 466.187 75.9169C466.275 75.9486 466.355 75.9976 466.424 76.061C466.492 76.1244 466.548 76.201 466.587 76.2863C466.626 76.3715 466.649 76.4639 466.652 76.5579C466.656 76.6519 466.641 76.7456 466.609 76.8338L466.609 76.8267ZM468.112 71.9434L468.021 72.2988C467.98 72.4539 467.888 72.5903 467.76 72.6858C467.633 72.7813 467.477 72.8303 467.318 72.8248C467.258 72.8318 467.196 72.8318 467.136 72.8248C466.956 72.7764 466.803 72.658 466.709 72.4955C466.616 72.3329 466.59 72.1395 466.637 71.9576L466.721 71.6307C466.738 71.5351 466.774 71.444 466.827 71.363C466.88 71.282 466.948 71.2128 467.029 71.1597C467.109 71.1066 467.199 71.0707 467.294 71.0542C467.388 71.0377 467.485 71.041 467.578 71.0639C467.672 71.0867 467.759 71.1287 467.836 71.1871C467.913 71.2455 467.977 71.3192 468.024 71.4036C468.071 71.488 468.101 71.5814 468.111 71.6779C468.122 71.7744 468.113 71.872 468.084 71.9648L468.112 71.9434Z" fill="white"/>
</g>
</g>
<path d="M498.39 42.12C497.917 42.12 497.487 42.03 497.1 41.85C496.713 41.67 496.387 41.43 496.12 41.13C495.853 40.8233 495.663 40.4867 495.55 40.12L496.27 39.85C496.443 40.3567 496.713 40.7433 497.08 41.01C497.447 41.27 497.883 41.4 498.39 41.4C498.71 41.4 498.99 41.35 499.23 41.25C499.477 41.1433 499.667 40.9967 499.8 40.81C499.933 40.6233 500 40.4067 500 40.16C500 39.7933 499.9 39.51 499.7 39.31C499.5 39.11 499.213 38.9567 498.84 38.85L497.5 38.45C496.973 38.2967 496.567 38.04 496.28 37.68C496 37.32 495.86 36.91 495.86 36.45C495.86 36.0567 495.957 35.71 496.15 35.41C496.343 35.1033 496.607 34.8633 496.94 34.69C497.28 34.5167 497.663 34.43 498.09 34.43C498.537 34.43 498.937 34.5133 499.29 34.68C499.65 34.84 499.953 35.0533 500.2 35.32C500.447 35.5867 500.623 35.8833 500.73 36.21L500.03 36.49C499.87 36.05 499.62 35.7167 499.28 35.49C498.947 35.2633 498.553 35.15 498.1 35.15C497.813 35.15 497.56 35.2 497.34 35.3C497.127 35.4 496.96 35.5433 496.84 35.73C496.72 35.9167 496.66 36.1367 496.66 36.39C496.66 36.6967 496.757 36.9733 496.95 37.22C497.143 37.46 497.44 37.64 497.84 37.76L499.02 38.11C499.607 38.2833 500.05 38.5333 500.35 38.86C500.65 39.1867 500.8 39.5967 500.8 40.09C500.8 40.49 500.697 40.8433 500.49 41.15C500.29 41.45 500.007 41.6867 499.64 41.86C499.28 42.0333 498.863 42.12 498.39 42.12ZM504.675 42.12C504.175 42.12 503.722 42 503.315 41.76C502.915 41.5133 502.598 41.1767 502.365 40.75C502.132 40.3233 502.015 39.84 502.015 39.3C502.015 38.76 502.128 38.2833 502.355 37.87C502.582 37.45 502.888 37.12 503.275 36.88C503.668 36.64 504.108 36.52 504.595 36.52C504.982 36.52 505.325 36.5933 505.625 36.74C505.932 36.88 506.192 37.0733 506.405 37.32C506.618 37.56 506.782 37.8333 506.895 38.14C507.008 38.44 507.065 38.75 507.065 39.07C507.065 39.1367 507.062 39.2133 507.055 39.3C507.048 39.38 507.038 39.4633 507.025 39.55L502.495 39.55L502.495 38.85L506.595 38.85L506.235 39.15C506.295 38.7833 506.252 38.4567 506.105 38.17C505.965 37.8767 505.762 37.6467 505.495 37.48C505.228 37.3067 504.928 37.22 504.595 37.22C504.262 37.22 503.952 37.3067 503.665 37.48C503.385 37.6533 503.165 37.8967 503.005 38.21C502.845 38.5167 502.782 38.8833 502.815 39.31C502.782 39.7367 502.848 40.11 503.015 40.43C503.188 40.7433 503.422 40.9867 503.715 41.16C504.015 41.3333 504.335 41.42 504.675 41.42C505.068 41.42 505.398 41.3267 505.665 41.14C505.932 40.9533 506.148 40.72 506.315 40.44L506.955 40.78C506.848 41.02 506.685 41.2433 506.465 41.45C506.245 41.65 505.982 41.8133 505.675 41.94C505.375 42.06 505.042 42.12 504.675 42.12ZM508.387 42L508.387 34.43L509.137 34.43L509.137 42L508.387 42ZM512.222 42.12C511.882 42.12 511.579 42.0567 511.312 41.93C511.046 41.7967 510.836 41.6167 510.682 41.39C510.529 41.1633 510.452 40.9033 510.452 40.61C510.452 40.33 510.512 40.0767 510.632 39.85C510.752 39.6167 510.939 39.42 511.192 39.26C511.446 39.1 511.769 38.9867 512.162 38.92L514.262 38.57L514.262 39.25L512.342 39.57C511.956 39.6367 511.676 39.76 511.502 39.94C511.336 40.12 511.252 40.3333 511.252 40.58C511.252 40.82 511.346 41.0233 511.532 41.19C511.726 41.3567 511.972 41.44 512.272 41.44C512.639 41.44 512.959 41.3633 513.232 41.21C513.506 41.05 513.719 40.8367 513.872 40.57C514.026 40.3033 514.102 40.0067 514.102 39.68L514.102 38.32C514.102 38 513.986 37.74 513.752 37.54C513.519 37.34 513.216 37.24 512.842 37.24C512.516 37.24 512.229 37.3233 511.982 37.49C511.736 37.65 511.552 37.86 511.432 38.12L510.752 37.75C510.852 37.5233 511.009 37.3167 511.222 37.13C511.442 36.9433 511.692 36.7967 511.972 36.69C512.252 36.5767 512.542 36.52 512.842 36.52C513.236 36.52 513.582 36.5967 513.882 36.75C514.189 36.9033 514.426 37.1167 514.592 37.39C514.766 37.6567 514.852 37.9667 514.852 38.32L514.852 42L514.102 42L514.102 40.93L514.212 41.04C514.119 41.24 513.972 41.4233 513.772 41.59C513.579 41.75 513.349 41.88 513.082 41.98C512.822 42.0733 512.536 42.12 512.222 42.12ZM516.395 42L516.395 36.64L517.145 36.64L517.145 37.66L517.025 37.51C517.172 37.1967 517.388 36.9533 517.675 36.78C517.968 36.6067 518.288 36.52 518.635 36.52C519.048 36.52 519.422 36.6367 519.755 36.87C520.088 37.1033 520.325 37.4067 520.465 37.78L520.255 37.79C520.388 37.3767 520.618 37.0633 520.945 36.85C521.278 36.63 521.645 36.52 522.045 36.52C522.405 36.52 522.735 36.6067 523.035 36.78C523.342 36.9533 523.585 37.1933 523.765 37.5C523.952 37.8 524.045 38.14 524.045 38.52L524.045 42L523.295 42L523.295 38.81C523.295 38.4833 523.235 38.2067 523.115 37.98C523.002 37.7533 522.845 37.58 522.645 37.46C522.445 37.3333 522.215 37.27 521.955 37.27C521.702 37.27 521.472 37.3333 521.265 37.46C521.058 37.58 520.895 37.7567 520.775 37.99C520.655 38.2167 520.595 38.49 520.595 38.81L520.595 42L519.845 42L519.845 38.81C519.845 38.4833 519.785 38.2067 519.665 37.98C519.552 37.7533 519.395 37.58 519.195 37.46C518.995 37.3333 518.765 37.27 518.505 37.27C518.245 37.27 518.012 37.3333 517.805 37.46C517.605 37.58 517.445 37.7567 517.325 37.99C517.205 38.2167 517.145 38.49 517.145 38.81L517.145 42L516.395 42ZM527.027 42.12C526.687 42.12 526.384 42.0567 526.117 41.93C525.85 41.7967 525.64 41.6167 525.487 41.39C525.334 41.1633 525.257 40.9033 525.257 40.61C525.257 40.33 525.317 40.0767 525.437 39.85C525.557 39.6167 525.744 39.42 525.997 39.26C526.25 39.1 526.574 38.9867 526.967 38.92L529.067 38.57L529.067 39.25L527.147 39.57C526.76 39.6367 526.48 39.76 526.307 39.94C526.14 40.12 526.057 40.3333 526.057 40.58C526.057 40.82 526.15 41.0233 526.337 41.19C526.53 41.3567 526.777 41.44 527.077 41.44C527.444 41.44 527.764 41.3633 528.037 41.21C528.31 41.05 528.524 40.8367 528.677 40.57C528.83 40.3033 528.907 40.0067 528.907 39.68L528.907 38.32C528.907 38 528.79 37.74 528.557 37.54C528.324 37.34 528.02 37.24 527.647 37.24C527.32 37.24 527.034 37.3233 526.787 37.49C526.54 37.65 526.357 37.86 526.237 38.12L525.557 37.75C525.657 37.5233 525.814 37.3167 526.027 37.13C526.247 36.9433 526.497 36.7967 526.777 36.69C527.057 36.5767 527.347 36.52 527.647 36.52C528.04 36.52 528.387 36.5967 528.687 36.75C528.994 36.9033 529.23 37.1167 529.397 37.39C529.57 37.6567 529.657 37.9667 529.657 38.32L529.657 42L528.907 42L528.907 40.93L529.017 41.04C528.924 41.24 528.777 41.4233 528.577 41.59C528.384 41.75 528.154 41.88 527.887 41.98C527.627 42.0733 527.34 42.12 527.027 42.12ZM533.152 42.06C532.672 42.06 532.302 41.92 532.042 41.64C531.782 41.36 531.652 40.96 531.652 40.44L531.652 37.39L530.662 37.39L530.662 36.64L530.912 36.64C531.139 36.64 531.319 36.5667 531.452 36.42C531.585 36.2667 531.652 36.0767 531.652 35.85L531.652 35.4L532.402 35.4L532.402 36.64L533.582 36.64L533.582 37.39L532.402 37.39L532.402 40.44C532.402 40.62 532.429 40.78 532.482 40.92C532.535 41.0533 532.625 41.16 532.752 41.24C532.885 41.32 533.062 41.36 533.282 41.36C533.335 41.36 533.399 41.3567 533.472 41.35C533.545 41.3433 533.609 41.3367 533.662 41.33L533.662 42C533.582 42.02 533.492 42.0333 533.392 42.04C533.292 42.0533 533.212 42.06 533.152 42.06ZM539.098 42.12C538.598 42.12 538.148 42 537.748 41.76C537.348 41.5133 537.032 41.18 536.798 40.76C536.572 40.3333 536.458 39.8533 536.458 39.32C536.458 38.78 536.572 38.3 536.798 37.88C537.032 37.46 537.345 37.13 537.738 36.89C538.138 36.6433 538.592 36.52 539.098 36.52C539.558 36.52 539.968 36.62 540.328 36.82C540.688 37.02 540.972 37.29 541.178 37.63L541.058 37.84L541.058 34.43L541.808 34.43L541.808 42L541.058 42L541.058 40.8L541.178 40.91C540.992 41.2967 540.712 41.5967 540.338 41.81C539.972 42.0167 539.558 42.12 539.098 42.12ZM539.138 41.37C539.498 41.37 539.822 41.28 540.108 41.1C540.402 40.92 540.632 40.6767 540.798 40.37C540.972 40.0567 541.058 39.7067 541.058 39.32C541.058 38.9333 540.972 38.5867 540.798 38.28C540.632 37.9667 540.402 37.72 540.108 37.54C539.822 37.36 539.498 37.27 539.138 37.27C538.785 37.27 538.465 37.36 538.178 37.54C537.892 37.72 537.665 37.9633 537.498 38.27C537.338 38.5767 537.258 38.9267 537.258 39.32C537.258 39.7067 537.338 40.0567 537.498 40.37C537.665 40.6767 537.888 40.92 538.168 41.1C538.455 41.28 538.778 41.37 539.138 41.37ZM544.898 42.12C544.558 42.12 544.255 42.0567 543.988 41.93C543.721 41.7967 543.511 41.6167 543.358 41.39C543.205 41.1633 543.128 40.9033 543.128 40.61C543.128 40.33 543.188 40.0767 543.308 39.85C543.428 39.6167 543.615 39.42 543.868 39.26C544.121 39.1 544.445 38.9867 544.838 38.92L546.938 38.57L546.938 39.25L545.018 39.57C544.631 39.6367 544.351 39.76 544.178 39.94C544.011 40.12 543.928 40.3333 543.928 40.58C543.928 40.82 544.021 41.0233 544.208 41.19C544.401 41.3567 544.648 41.44 544.948 41.44C545.315 41.44 545.635 41.3633 545.908 41.21C546.181 41.05 546.395 40.8367 546.548 40.57C546.701 40.3033 546.778 40.0067 546.778 39.68L546.778 38.32C546.778 38 546.661 37.74 546.428 37.54C546.195 37.34 545.891 37.24 545.518 37.24C545.191 37.24 544.905 37.3233 544.658 37.49C544.411 37.65 544.228 37.86 544.108 38.12L543.428 37.75C543.528 37.5233 543.685 37.3167 543.898 37.13C544.118 36.9433 544.368 36.7967 544.648 36.69C544.928 36.5767 545.218 36.52 545.518 36.52C545.911 36.52 546.258 36.5967 546.558 36.75C546.865 36.9033 547.101 37.1167 547.268 37.39C547.441 37.6567 547.528 37.9667 547.528 38.32L547.528 42L546.778 42L546.778 40.93L546.888 41.04C546.795 41.24 546.648 41.4233 546.448 41.59C546.255 41.75 546.025 41.88 545.758 41.98C545.498 42.0733 545.211 42.12 544.898 42.12ZM551.023 42.06C550.543 42.06 550.173 41.92 549.913 41.64C549.653 41.36 549.523 40.96 549.523 40.44L549.523 37.39L548.533 37.39L548.533 36.64L548.783 36.64C549.01 36.64 549.19 36.5667 549.323 36.42C549.456 36.2667 549.523 36.0767 549.523 35.85L549.523 35.4L550.273 35.4L550.273 36.64L551.453 36.64L551.453 37.39L550.273 37.39L550.273 40.44C550.273 40.62 550.3 40.78 550.353 40.92C550.406 41.0533 550.496 41.16 550.623 41.24C550.756 41.32 550.933 41.36 551.153 41.36C551.206 41.36 551.27 41.3567 551.343 41.35C551.416 41.3433 551.48 41.3367 551.533 41.33L551.533 42C551.453 42.02 551.363 42.0333 551.263 42.04C551.163 42.0533 551.083 42.06 551.023 42.06ZM554.302 42.12C553.962 42.12 553.659 42.0567 553.392 41.93C553.126 41.7967 552.916 41.6167 552.762 41.39C552.609 41.1633 552.532 40.9033 552.532 40.61C552.532 40.33 552.592 40.0767 552.712 39.85C552.832 39.6167 553.019 39.42 553.272 39.26C553.526 39.1 553.849 38.9867 554.242 38.92L556.342 38.57L556.342 39.25L554.422 39.57C554.036 39.6367 553.756 39.76 553.582 39.94C553.416 40.12 553.332 40.3333 553.332 40.58C553.332 40.82 553.426 41.0233 553.612 41.19C553.806 41.3567 554.052 41.44 554.352 41.44C554.719 41.44 555.039 41.3633 555.312 41.21C555.586 41.05 555.799 40.8367 555.952 40.57C556.106 40.3033 556.182 40.0067 556.182 39.68L556.182 38.32C556.182 38 556.066 37.74 555.832 37.54C555.599 37.34 555.296 37.24 554.922 37.24C554.596 37.24 554.309 37.3233 554.062 37.49C553.816 37.65 553.632 37.86 553.512 38.12L552.832 37.75C552.932 37.5233 553.089 37.3167 553.302 37.13C553.522 36.9433 553.772 36.7967 554.052 36.69C554.332 36.5767 554.622 36.52 554.922 36.52C555.316 36.52 555.662 36.5967 555.962 36.75C556.269 36.9033 556.506 37.1167 556.672 37.39C556.846 37.6567 556.932 37.9667 556.932 38.32L556.932 42L556.182 42L556.182 40.93L556.292 41.04C556.199 41.24 556.052 41.4233 555.852 41.59C555.659 41.75 555.429 41.88 555.162 41.98C554.902 42.0733 554.616 42.12 554.302 42.12ZM558.475 42L558.475 36.64L559.225 36.64L559.225 37.68L559.055 37.64C559.188 37.2933 559.405 37.02 559.705 36.82C560.012 36.62 560.365 36.52 560.765 36.52C561.145 36.52 561.485 36.6067 561.785 36.78C562.092 36.9533 562.332 37.1933 562.505 37.5C562.685 37.8 562.775 38.14 562.775 38.52L562.775 42L562.025 42L562.025 38.81C562.025 38.4833 561.965 38.2067 561.845 37.98C561.732 37.7533 561.568 37.58 561.355 37.46C561.148 37.3333 560.908 37.27 560.635 37.27C560.362 37.27 560.118 37.3333 559.905 37.46C559.692 37.58 559.525 37.7567 559.405 37.99C559.285 38.2167 559.225 38.49 559.225 38.81L559.225 42L558.475 42ZM566.748 44.2C566.381 44.2 566.041 44.1433 565.728 44.03C565.421 43.9167 565.154 43.76 564.928 43.56C564.708 43.3667 564.538 43.14 564.418 42.88L565.108 42.51C565.214 42.7633 565.404 42.9833 565.678 43.17C565.951 43.3567 566.301 43.45 566.728 43.45C567.054 43.45 567.354 43.3867 567.628 43.26C567.901 43.1333 568.121 42.9467 568.288 42.7C568.454 42.4533 568.538 42.15 568.538 41.79L568.538 40.6L568.658 40.71C568.471 41.0967 568.194 41.3967 567.828 41.61C567.461 41.8167 567.061 41.92 566.628 41.92C566.128 41.92 565.678 41.8 565.278 41.56C564.878 41.32 564.561 40.9967 564.328 40.59C564.101 40.1767 563.988 39.72 563.988 39.22C563.988 38.7133 564.101 38.2567 564.328 37.85C564.561 37.4433 564.874 37.12 565.268 36.88C565.668 36.64 566.121 36.52 566.628 36.52C567.061 36.52 567.454 36.62 567.808 36.82C568.168 37.02 568.451 37.29 568.658 37.63L568.538 37.84L568.538 36.64L569.288 36.64L569.288 41.79C569.288 42.25 569.178 42.66 568.958 43.02C568.744 43.3867 568.444 43.6733 568.058 43.88C567.678 44.0933 567.241 44.2 566.748 44.2ZM566.668 41.17C567.014 41.17 567.328 41.0833 567.608 40.91C567.888 40.73 568.111 40.4933 568.278 40.2C568.451 39.9 568.538 39.5733 568.538 39.22C568.538 38.8667 568.451 38.5433 568.278 38.25C568.111 37.95 567.888 37.7133 567.608 37.54C567.328 37.36 567.014 37.27 566.668 37.27C566.314 37.27 565.994 37.36 565.708 37.54C565.421 37.7133 565.194 37.9467 565.028 38.24C564.868 38.5333 564.788 38.86 564.788 39.22C564.788 39.5733 564.868 39.9 565.028 40.2C565.194 40.4933 565.418 40.73 565.698 40.91C565.984 41.0833 566.308 41.17 566.668 41.17ZM574.948 42.12C574.448 42.12 573.998 42 573.598 41.76C573.198 41.5133 572.881 41.18 572.648 40.76C572.421 40.3333 572.308 39.8533 572.308 39.32C572.308 38.78 572.421 38.3 572.648 37.88C572.881 37.46 573.194 37.13 573.588 36.89C573.988 36.6433 574.441 36.52 574.948 36.52C575.408 36.52 575.818 36.62 576.178 36.82C576.538 37.02 576.821 37.29 577.028 37.63L576.908 37.84L576.908 34.43L577.658 34.43L577.658 42L576.908 42L576.908 40.8L577.028 40.91C576.841 41.2967 576.561 41.5967 576.188 41.81C575.821 42.0167 575.408 42.12 574.948 42.12ZM574.988 41.37C575.348 41.37 575.671 41.28 575.958 41.1C576.251 40.92 576.481 40.6767 576.648 40.37C576.821 40.0567 576.908 39.7067 576.908 39.32C576.908 38.9333 576.821 38.5867 576.648 38.28C576.481 37.9667 576.251 37.72 575.958 37.54C575.671 37.36 575.348 37.27 574.988 37.27C574.634 37.27 574.314 37.36 574.028 37.54C573.741 37.72 573.514 37.9633 573.348 38.27C573.188 38.5767 573.108 38.9267 573.108 39.32C573.108 39.7067 573.188 40.0567 573.348 40.37C573.514 40.6767 573.738 40.92 574.018 41.1C574.304 41.28 574.628 41.37 574.988 41.37ZM579.198 42L579.198 36.64L579.948 36.64L579.948 42L579.198 42ZM579.198 35.65L579.198 34.55L579.948 34.55L579.948 35.65L579.198 35.65Z" fill="white"/>
</g>
<defs>
<clipPath id="clip0_701_2651">
<rect width="491.633" height="328.737" fill="white" transform="translate(818.14 18) rotate(24.0823)"/>
</clipPath>
<clipPath id="clip1_701_2651">
<rect width="214.516" height="52.7778" fill="white" transform="translate(431 53)"/>
</clipPath>
<clipPath id="clip2_701_2651">
<rect width="51.7244" height="52.4735" fill="white" transform="translate(431 53)"/>
</clipPath>
</defs>
</svg>
