<svg width="159" height="39" viewBox="0 0 159 39" fill="none" xmlns="http://www.w3.org/2000/svg">
<g clip-path="url(#clip0_1152_9171)">
<path d="M49.5997 23.8768C48.3258 23.8872 47.0635 23.6351 45.8914 23.1362C44.774 22.6615 43.7671 21.9604 42.9342 21.0772C42.1096 20.1924 41.4845 19.141 41.1011 17.9939L44.3419 16.602C44.7977 17.7438 45.5659 18.734 46.5584 19.4594C47.5069 20.1504 48.6521 20.5187 49.8255 20.5099C50.435 20.5229 51.0407 20.4121 51.6061 20.1843C52.0673 19.9931 52.4697 19.6832 52.7722 19.2861C53.0516 18.8865 53.1952 18.4078 53.1819 17.9204C53.2047 17.3559 53.0047 16.8051 52.6251 16.3867C52.159 15.9224 51.5824 15.5844 50.9496 15.4045L46.8841 14.0966C45.4425 13.7169 44.144 12.9224 43.1496 11.8117C42.3119 10.7966 41.8681 9.51369 41.8995 8.19799C41.8761 7.05997 42.1924 5.94081 42.8081 4.98344C43.4322 4.04223 44.3024 3.29012 45.3241 2.8089C46.4739 2.27094 47.7316 2.00323 49.0009 2.02627C50.2084 2.00628 51.4073 2.23142 52.5253 2.68809C53.5444 3.1106 54.468 3.73404 55.2409 4.52122C56.0098 5.30953 56.5977 6.25593 56.9637 7.29456L53.7492 8.72324C53.394 7.73653 52.7451 6.88231 51.8898 6.27557C51.0444 5.68725 50.0359 5.37865 49.0061 5.39314C48.4201 5.38148 47.8383 5.49427 47.2991 5.72405C46.8351 5.91592 46.4359 6.23674 46.1488 6.64849C45.854 7.08402 45.7094 7.60382 45.7369 8.12899C45.7644 8.65416 45.9625 9.15602 46.3011 9.55839C46.7715 10.0636 47.3737 10.4274 48.0397 10.6089L51.9318 11.8275C53.3777 12.2301 54.688 13.0159 55.7241 14.1018C56.5783 15.0961 57.0298 16.3739 56.99 17.6841C57.0118 18.8256 56.6857 19.9468 56.055 20.8986C55.4029 21.8456 54.5087 22.6002 53.4655 23.0836C52.2537 23.6377 50.9317 23.9089 49.5997 23.8768Z" fill="#174394"/>
<path d="M60.115 23.5354V2H63.8705V16.1135L62.4471 15.6881L69.7219 8.07192H74.3546L68.6451 14.2962L74.4701 23.5354H70.2051L65.1312 15.52L67.3477 15.063L62.6887 20.0949L63.8548 17.7943V23.5354H60.115Z" fill="#174394"/>
<path d="M78.4202 29.7859C78.0101 29.7873 77.6007 29.7539 77.1963 29.6861C76.8207 29.6279 76.4571 29.509 76.1196 29.3342V26.2352C76.3664 26.293 76.6448 26.3507 77.0125 26.4033C77.3369 26.4596 77.6654 26.4894 77.9947 26.4926C78.662 26.5481 79.3243 26.3386 79.8384 25.9095C80.2739 25.4564 80.6292 24.9324 80.8889 24.36L81.9394 21.9701L81.8816 25.1217L75.1111 8.07196H79.1188L83.846 20.636H82.4226L87.1131 8.07196H91.147L84.4186 25.0954C84.0658 26.0049 83.5847 26.8592 82.9899 27.6324C82.4588 28.2998 81.7836 28.8385 81.0149 29.2081C80.2059 29.5974 79.318 29.7951 78.4202 29.7859Z" fill="#174394"/>
<path d="M93.4949 23.5354V2.35725H102.424C103.656 2.32597 104.879 2.57377 106.001 3.0821C106.962 3.52315 107.769 4.24217 108.318 5.14634C108.88 6.1109 109.162 7.21327 109.132 8.32937C109.135 9.29889 108.864 10.2495 108.349 11.0712C107.742 11.9892 106.875 12.7058 105.859 13.1302V11.3496C106.776 11.6705 107.618 12.1745 108.333 12.8308C108.911 13.3717 109.351 14.0436 109.615 14.79C109.86 15.5231 109.984 16.2913 109.983 17.0643C110.029 17.957 109.873 18.8487 109.526 19.6727C109.18 20.4967 108.652 21.2318 107.981 21.8231C106.654 22.9682 104.802 23.5389 102.424 23.5354H93.4949ZM97.387 10.5722H102.64C103.335 10.6001 104.013 10.3508 104.525 9.87886C104.761 9.6427 104.946 9.36032 105.068 9.04941C105.19 8.7385 105.247 8.40575 105.234 8.07199C105.25 7.74494 105.194 7.41842 105.072 7.11473C104.95 6.81105 104.763 6.53737 104.525 6.3124C103.998 5.85597 103.315 5.62076 102.619 5.65583H97.366L97.387 10.5722ZM97.387 20.1213H102.844C103.724 20.1658 104.587 19.8663 105.25 19.2861C105.549 18.9987 105.783 18.651 105.937 18.2661C106.091 17.8812 106.161 17.468 106.143 17.0538C106.16 16.6382 106.09 16.2236 105.936 15.8371C105.782 15.4507 105.548 15.101 105.25 14.811C104.922 14.5197 104.54 14.296 104.125 14.1527C103.711 14.0094 103.272 13.9493 102.834 13.9758H97.3765L97.387 20.1213Z" fill="#174394"/>
<path d="M117.531 23.8769C116.562 23.902 115.599 23.7231 114.705 23.3516C113.94 23.0244 113.29 22.4756 112.84 21.7759C112.397 21.0762 112.17 20.2612 112.189 19.4332C112.175 18.6315 112.376 17.8407 112.772 17.1431C113.2 16.4293 113.813 15.8449 114.547 15.4518C115.484 14.9543 116.504 14.6321 117.557 14.5011L122.589 13.6765V16.5181L118.271 17.285C117.662 17.3555 117.085 17.5958 116.606 17.9783C116.428 18.1479 116.289 18.354 116.198 18.5825C116.108 18.811 116.068 19.0565 116.081 19.3019C116.073 19.5457 116.124 19.7877 116.23 20.0073C116.336 20.2268 116.494 20.4174 116.69 20.5625C117.13 20.888 117.667 21.0546 118.213 21.0353C118.931 21.0475 119.64 20.8757 120.272 20.5363C120.856 20.218 121.336 19.7384 121.654 19.1549C121.975 18.5727 122.141 17.9181 122.137 17.2534V13.2458C122.143 12.9279 122.076 12.6129 121.942 12.3245C121.809 12.0361 121.611 11.7817 121.365 11.5807C120.789 11.1153 120.062 10.8779 119.322 10.9136C118.57 10.9055 117.834 11.1353 117.221 11.5702C116.618 11.9862 116.149 12.5683 115.871 13.2458L112.83 11.7698C113.131 10.9639 113.623 10.243 114.264 9.6688C114.939 9.05781 115.725 8.58178 116.58 8.26637C117.506 7.9135 118.489 7.73541 119.479 7.74112C120.635 7.71594 121.781 7.95487 122.83 8.43971C123.752 8.86371 124.536 9.53688 125.094 10.3831C125.639 11.2414 125.92 12.2401 125.903 13.2563V23.5355H122.384V20.9092L123.177 20.8777C122.796 21.5045 122.311 22.0622 121.743 22.527C121.189 22.9905 120.553 23.3468 119.868 23.5775C119.11 23.8007 118.321 23.9017 117.531 23.8769Z" fill="#174394"/>
<path d="M135.21 23.8768C133.69 23.9123 132.193 23.5014 130.903 22.695C129.713 21.9531 128.815 20.8233 128.361 19.4962L131.171 18.1778C131.53 18.9991 132.106 19.7072 132.836 20.2263C133.531 20.7135 134.362 20.9707 135.21 20.9616C135.771 20.988 136.325 20.8293 136.786 20.5099C136.973 20.3734 137.125 20.1938 137.229 19.9862C137.332 19.7787 137.384 19.5494 137.38 19.3176C137.391 19.0448 137.305 18.7769 137.138 18.5612C136.965 18.3441 136.748 18.1653 136.502 18.036C136.212 17.8842 135.905 17.7645 135.589 17.6788L133.062 16.9697C131.931 16.7043 130.906 16.1039 130.121 15.2469C129.455 14.4801 129.096 13.4943 129.112 12.4788C129.094 11.5944 129.347 10.7257 129.837 9.9891C130.344 9.26098 131.042 8.68669 131.854 8.3293C132.788 7.91501 133.801 7.71061 134.822 7.73051C136.184 7.70479 137.526 8.06929 138.688 8.78102C139.795 9.46889 140.637 10.5111 141.077 11.7382L138.236 13.0723C137.98 12.3893 137.51 11.8072 136.896 11.4125C136.272 11.0046 135.541 10.7924 134.795 10.8032C134.272 10.7734 133.753 10.9174 133.319 11.2129C133.147 11.3437 133.01 11.5144 132.918 11.7102C132.827 11.906 132.784 12.1211 132.794 12.337C132.791 12.5916 132.87 12.8404 133.02 13.0461C133.184 13.2738 133.405 13.4548 133.661 13.5713C133.968 13.7198 134.286 13.8445 134.612 13.9442L137.086 14.6796C138.202 14.9733 139.218 15.5631 140.027 16.3867C140.722 17.1449 141.099 18.142 141.077 19.1705C141.092 20.0478 140.835 20.9083 140.342 21.6339C139.823 22.363 139.115 22.9368 138.294 23.2937C137.32 23.7089 136.268 23.9079 135.21 23.8768Z" fill="#174394"/>
<path d="M151.273 23.8769C149.799 23.9097 148.345 23.5353 147.071 22.7949C145.887 22.095 144.918 21.0829 144.271 19.8693C143.601 18.6105 143.258 17.2035 143.273 15.7775C143.254 14.3295 143.616 12.902 144.324 11.6386C144.978 10.465 145.924 9.48064 147.071 8.78118C148.256 8.07374 149.614 7.71001 150.994 7.73067C152.091 7.70823 153.179 7.91207 154.193 8.32946C155.078 8.70867 155.873 9.27073 156.525 9.97875C157.172 10.682 157.675 11.5045 158.007 12.4002C158.356 13.3322 158.534 14.3199 158.532 15.3153C158.532 15.599 158.532 15.8773 158.49 16.1505C158.462 16.4072 158.409 16.6605 158.332 16.9068H146.377V14.0127H156.215L154.424 15.3468C154.617 14.5779 154.582 13.7697 154.325 13.02C154.087 12.3619 153.65 11.7944 153.074 11.3969C152.453 10.9856 151.718 10.7782 150.973 10.8034C150.231 10.7851 149.5 10.9962 148.882 11.4078C148.264 11.8195 147.787 12.4118 147.517 13.104C147.189 13.9637 147.068 14.8887 147.165 15.8038C147.074 16.6615 147.206 17.5282 147.549 18.3198C147.856 19.0212 148.371 19.6115 149.025 20.0111C149.707 20.4157 150.49 20.6213 151.283 20.6046C152.043 20.6322 152.795 20.4505 153.458 20.0794C154.046 19.7273 154.531 19.2275 154.866 18.6297L157.88 20.1056C157.565 20.8606 157.078 21.5315 156.457 22.0648C155.782 22.6531 155.001 23.1077 154.156 23.4042C153.23 23.7266 152.254 23.8865 151.273 23.8769Z" fill="#174394"/>
<g clip-path="url(#clip1_1152_9171)">
<path d="M21.6867 18.4522L12.175 20.6582L14.6516 16.9657L23.9972 12.0388L21.6867 18.4522Z" fill="#54A4D9"/>
<path d="M35.0146 0.105028C33.4103 0.523449 31.8952 1.23553 30.5443 2.20604C30.2795 7.64765 29.1996 10.4315 28.182 11.8549C28.0929 11.9613 27.9705 12.0335 27.8352 12.0596C27.6999 12.0857 27.5598 12.064 27.4384 11.9983C27.3169 11.9326 27.2214 11.8267 27.1677 11.6983C27.1141 11.5699 27.1056 11.4269 27.1436 11.2929C27.8051 9.13646 28.0674 6.87499 27.9172 4.6222C26.8497 5.84681 25.99 7.24185 25.3731 8.75068C24.6633 12.6037 23.4934 16.3552 21.8893 19.9228L10.7629 25.7636L8.28638 29.4404L17.3983 27.3394C16.3672 28.6241 15.2046 29.795 13.93 30.8323C10.4566 33.238 4.93237 34.1414 0 22.0606C0 22.0606 2.93346 44.1212 16.3703 37.8969C25.6016 33.6424 31.5412 25.6533 35.1808 16.3616C37.7612 9.80119 40.0301 -1.18709 35.0146 0.105028ZM23.0264 24.7919L22.8862 25.0178C22.8142 25.1358 22.6991 25.2202 22.5658 25.2527C22.4326 25.2852 22.2921 25.263 22.1749 25.1911C22.0582 25.1183 21.9747 25.0018 21.9426 24.867C21.9105 24.7322 21.9324 24.59 22.0036 24.4715L22.1334 24.2509C22.2089 24.1457 22.3204 24.0727 22.4462 24.0459C22.572 24.019 22.7031 24.0404 22.8142 24.1057C22.9253 24.1711 23.0085 24.2758 23.0477 24.3997C23.0869 24.5235 23.0793 24.6576 23.0264 24.7761V24.7919ZM24.8436 21.2832L24.6618 21.6824C24.6198 21.7718 24.5536 21.8473 24.4709 21.9003C24.3882 21.9533 24.2924 21.9815 24.1946 21.9818C24.1171 21.9825 24.0405 21.9645 23.9713 21.9293C23.8467 21.87 23.7505 21.7632 23.7037 21.6322C23.657 21.5012 23.6636 21.3568 23.7221 21.2307L23.9038 20.842C23.9614 20.7163 24.0658 20.6188 24.1941 20.5706C24.3225 20.5224 24.4644 20.5274 24.5891 20.5846C24.7108 20.6429 24.8052 20.7467 24.8527 20.874C24.9002 21.0014 24.8969 21.1425 24.8436 21.2675V21.2832ZM26.3129 17.6064L26.1675 18.0214C26.1304 18.1219 26.0637 18.2085 25.9764 18.2696C25.8892 18.3306 25.7855 18.3632 25.6795 18.3628C25.6176 18.3621 25.5563 18.3515 25.4977 18.3313C25.4335 18.3073 25.3746 18.2708 25.3244 18.2237C25.2742 18.1766 25.2337 18.1199 25.2053 18.057C25.1768 17.994 25.1609 17.9259 25.1585 17.8567C25.1562 17.7875 25.1673 17.7185 25.1914 17.6537L25.3368 17.2545C25.3595 17.1892 25.3947 17.1291 25.4404 17.0776C25.4862 17.0262 25.5415 16.9843 25.6032 16.9546C25.665 16.9248 25.732 16.9077 25.8003 16.9041C25.8686 16.9006 25.9369 16.9108 26.0014 16.9341C26.066 16.9576 26.1255 16.9938 26.1762 17.0406C26.227 17.0875 26.268 17.1441 26.297 17.2071C26.326 17.2701 26.3423 17.3383 26.345 17.4078C26.3478 17.4772 26.3368 17.5465 26.3129 17.6117V17.6064ZM27.424 13.998L27.3565 14.2606C27.326 14.3752 27.2582 14.476 27.1639 14.5465C27.0696 14.6171 26.9545 14.6533 26.8373 14.6493C26.7924 14.6544 26.7471 14.6544 26.7023 14.6493C26.5695 14.6135 26.4562 14.526 26.3871 14.4059C26.318 14.2858 26.2988 14.1429 26.3337 14.0085L26.396 13.7668C26.4083 13.6962 26.4349 13.6289 26.4739 13.569C26.513 13.5092 26.5638 13.4581 26.6231 13.4188C26.6825 13.3796 26.7492 13.3531 26.819 13.3409C26.8889 13.3287 26.9605 13.3311 27.0294 13.348C27.0983 13.3649 27.1631 13.3959 27.2197 13.4391C27.2763 13.4823 27.3236 13.5367 27.3586 13.5991C27.3937 13.6615 27.4157 13.7304 27.4233 13.8017C27.431 13.873 27.4241 13.9452 27.4032 14.0137L27.424 13.998Z" fill="#174394"/>
</g>
<path d="M41.528 37V32.53H43.064C43.356 32.53 43.612 32.588 43.832 32.704C44.052 32.816 44.222 32.976 44.342 33.184C44.466 33.388 44.528 33.626 44.528 33.898C44.528 34.17 44.466 34.408 44.342 34.612C44.222 34.816 44.052 34.976 43.832 35.092C43.616 35.204 43.36 35.26 43.064 35.26H42.008V37H41.528ZM42.008 34.81H43.088C43.28 34.81 43.448 34.774 43.592 34.702C43.736 34.626 43.848 34.52 43.928 34.384C44.008 34.244 44.048 34.08 44.048 33.892C44.048 33.704 44.008 33.542 43.928 33.406C43.848 33.27 43.736 33.166 43.592 33.094C43.448 33.018 43.28 32.98 43.088 32.98H42.008V34.81ZM46.7063 37.072C46.4023 37.072 46.1263 37 45.8783 36.856C45.6303 36.708 45.4323 36.508 45.2843 36.256C45.1403 36 45.0683 35.71 45.0683 35.386C45.0683 35.066 45.1403 34.78 45.2843 34.528C45.4283 34.276 45.6223 34.078 45.8663 33.934C46.1143 33.786 46.3943 33.712 46.7063 33.712C47.0183 33.712 47.2963 33.784 47.5403 33.928C47.7883 34.072 47.9823 34.27 48.1223 34.522C48.2663 34.774 48.3383 35.062 48.3383 35.386C48.3383 35.714 48.2643 36.006 48.1163 36.262C47.9683 36.514 47.7703 36.712 47.5223 36.856C47.2783 37 47.0063 37.072 46.7063 37.072ZM46.7063 36.622C46.9223 36.622 47.1163 36.568 47.2883 36.46C47.4643 36.352 47.6023 36.204 47.7023 36.016C47.8063 35.828 47.8583 35.618 47.8583 35.386C47.8583 35.154 47.8063 34.946 47.7023 34.762C47.6023 34.578 47.4643 34.432 47.2883 34.324C47.1163 34.216 46.9223 34.162 46.7063 34.162C46.4903 34.162 46.2943 34.216 46.1183 34.324C45.9463 34.432 45.8083 34.578 45.7043 34.762C45.6003 34.946 45.5483 35.154 45.5483 35.386C45.5483 35.618 45.6003 35.828 45.7043 36.016C45.8083 36.204 45.9463 36.352 46.1183 36.46C46.2943 36.568 46.4903 36.622 46.7063 36.622ZM49.7813 37L48.6773 33.784H49.1873L50.0993 36.598H49.9193L50.7773 33.784H51.2273L52.0853 36.598H51.9053L52.8233 33.784H53.3273L52.2233 37H51.7733L50.9393 34.246H51.0653L50.2313 37H49.7813ZM55.26 37.072C54.96 37.072 54.688 37 54.444 36.856C54.204 36.708 54.014 36.506 53.874 36.25C53.734 35.994 53.664 35.704 53.664 35.38C53.664 35.056 53.732 34.77 53.868 34.522C54.004 34.27 54.188 34.072 54.42 33.928C54.656 33.784 54.92 33.712 55.212 33.712C55.444 33.712 55.65 33.756 55.83 33.844C56.014 33.928 56.17 34.044 56.298 34.192C56.426 34.336 56.524 34.5 56.592 34.684C56.66 34.864 56.694 35.05 56.694 35.242C56.694 35.282 56.692 35.328 56.688 35.38C56.684 35.428 56.678 35.478 56.67 35.53H53.952V35.11H56.412L56.196 35.29C56.232 35.07 56.206 34.874 56.118 34.702C56.034 34.526 55.912 34.388 55.752 34.288C55.592 34.184 55.412 34.132 55.212 34.132C55.012 34.132 54.826 34.184 54.654 34.288C54.486 34.392 54.354 34.538 54.258 34.726C54.162 34.91 54.124 35.13 54.144 35.386C54.124 35.642 54.164 35.866 54.264 36.058C54.368 36.246 54.508 36.392 54.684 36.496C54.864 36.6 55.056 36.652 55.26 36.652C55.496 36.652 55.694 36.596 55.854 36.484C56.014 36.372 56.144 36.232 56.244 36.064L56.628 36.268C56.564 36.412 56.466 36.546 56.334 36.67C56.202 36.79 56.044 36.888 55.86 36.964C55.68 37.036 55.48 37.072 55.26 37.072ZM57.4874 37V33.784H57.9374V34.312L57.8774 34.234C57.9534 34.082 58.0674 33.962 58.2194 33.874C58.3754 33.786 58.5634 33.742 58.7834 33.742H58.9874V34.192H58.7054C58.4734 34.192 58.2874 34.264 58.1474 34.408C58.0074 34.552 57.9374 34.756 57.9374 35.02V37H57.4874ZM60.9787 37.072C60.6787 37.072 60.4067 37 60.1627 36.856C59.9227 36.708 59.7327 36.506 59.5927 36.25C59.4527 35.994 59.3827 35.704 59.3827 35.38C59.3827 35.056 59.4507 34.77 59.5867 34.522C59.7227 34.27 59.9067 34.072 60.1387 33.928C60.3747 33.784 60.6387 33.712 60.9307 33.712C61.1627 33.712 61.3687 33.756 61.5487 33.844C61.7327 33.928 61.8887 34.044 62.0167 34.192C62.1447 34.336 62.2427 34.5 62.3107 34.684C62.3787 34.864 62.4127 35.05 62.4127 35.242C62.4127 35.282 62.4107 35.328 62.4067 35.38C62.4027 35.428 62.3967 35.478 62.3887 35.53H59.6707V35.11H62.1307L61.9147 35.29C61.9507 35.07 61.9247 34.874 61.8367 34.702C61.7527 34.526 61.6307 34.388 61.4707 34.288C61.3107 34.184 61.1307 34.132 60.9307 34.132C60.7307 34.132 60.5447 34.184 60.3727 34.288C60.2047 34.392 60.0727 34.538 59.9767 34.726C59.8807 34.91 59.8427 35.13 59.8627 35.386C59.8427 35.642 59.8827 35.866 59.9827 36.058C60.0867 36.246 60.2267 36.392 60.4027 36.496C60.5827 36.6 60.7747 36.652 60.9787 36.652C61.2147 36.652 61.4127 36.596 61.5727 36.484C61.7327 36.372 61.8627 36.232 61.9627 36.064L62.3467 36.268C62.2827 36.412 62.1847 36.546 62.0527 36.67C61.9207 36.79 61.7627 36.888 61.5787 36.964C61.3987 37.036 61.1987 37.072 60.9787 37.072ZM64.6581 37.072C64.3581 37.072 64.0881 37 63.8481 36.856C63.6081 36.708 63.4181 36.508 63.2781 36.256C63.1421 36 63.0741 35.712 63.0741 35.392C63.0741 35.068 63.1421 34.78 63.2781 34.528C63.4181 34.276 63.6061 34.078 63.8421 33.934C64.0821 33.786 64.3541 33.712 64.6581 33.712C64.9341 33.712 65.1801 33.772 65.3961 33.892C65.6121 34.012 65.7821 34.174 65.9061 34.378L65.8341 34.504V32.458H66.2841V37H65.8341V36.28L65.9061 36.346C65.7941 36.578 65.6261 36.758 65.4021 36.886C65.1821 37.01 64.9341 37.072 64.6581 37.072ZM64.6821 36.622C64.8981 36.622 65.0921 36.568 65.2641 36.46C65.4401 36.352 65.5781 36.206 65.6781 36.022C65.7821 35.834 65.8341 35.624 65.8341 35.392C65.8341 35.16 65.7821 34.952 65.6781 34.768C65.5781 34.58 65.4401 34.432 65.2641 34.324C65.0921 34.216 64.8981 34.162 64.6821 34.162C64.4701 34.162 64.2781 34.216 64.1061 34.324C63.9341 34.432 63.7981 34.578 63.6981 34.762C63.6021 34.946 63.5541 35.156 63.5541 35.392C63.5541 35.624 63.6021 35.834 63.6981 36.022C63.7981 36.206 63.9321 36.352 64.1001 36.46C64.2721 36.568 64.4661 36.622 64.6821 36.622ZM69.8536 37.072C69.5776 37.072 69.3276 37.01 69.1036 36.886C68.8836 36.758 68.7176 36.578 68.6056 36.346L68.6776 36.28V37H68.2276V32.458H68.6776V34.504L68.6056 34.378C68.7336 34.174 68.9036 34.012 69.1156 33.892C69.3316 33.772 69.5776 33.712 69.8536 33.712C70.1576 33.712 70.4276 33.786 70.6636 33.934C70.9036 34.078 71.0916 34.276 71.2276 34.528C71.3676 34.78 71.4376 35.068 71.4376 35.392C71.4376 35.712 71.3676 36 71.2276 36.256C71.0916 36.508 70.9036 36.708 70.6636 36.856C70.4276 37 70.1576 37.072 69.8536 37.072ZM69.8296 36.622C70.0456 36.622 70.2376 36.568 70.4056 36.46C70.5776 36.352 70.7116 36.206 70.8076 36.022C70.9076 35.834 70.9576 35.624 70.9576 35.392C70.9576 35.156 70.9076 34.946 70.8076 34.762C70.7116 34.578 70.5776 34.432 70.4056 34.324C70.2376 34.216 70.0456 34.162 69.8296 34.162C69.6136 34.162 69.4176 34.216 69.2416 34.324C69.0696 34.432 68.9316 34.58 68.8276 34.768C68.7276 34.952 68.6776 35.16 68.6776 35.392C68.6776 35.624 68.7276 35.834 68.8276 36.022C68.9316 36.206 69.0696 36.352 69.2416 36.46C69.4176 36.568 69.6136 36.622 69.8296 36.622ZM72.237 38.32C72.173 38.32 72.107 38.314 72.039 38.302C71.975 38.294 71.911 38.278 71.847 38.254V37.834C71.887 37.838 71.937 37.844 71.997 37.852C72.061 37.864 72.125 37.87 72.189 37.87C72.385 37.87 72.535 37.828 72.639 37.744C72.743 37.664 72.845 37.508 72.945 37.276L73.149 36.796L73.137 37.192L71.775 33.784H72.261L73.377 36.598H73.251L74.361 33.784H74.859L73.389 37.408C73.325 37.564 73.243 37.712 73.143 37.852C73.047 37.992 72.925 38.104 72.777 38.188C72.629 38.276 72.449 38.32 72.237 38.32ZM76.4733 37V32.53H76.8933L79.5153 36.292H79.3533V32.53H79.8333V37H79.4133L76.7913 33.214H76.9533V37H76.4733ZM82.3313 37.072C82.0273 37.072 81.7513 37 81.5033 36.856C81.2553 36.708 81.0573 36.508 80.9093 36.256C80.7653 36 80.6933 35.71 80.6933 35.386C80.6933 35.066 80.7653 34.78 80.9093 34.528C81.0533 34.276 81.2473 34.078 81.4913 33.934C81.7393 33.786 82.0193 33.712 82.3313 33.712C82.6433 33.712 82.9213 33.784 83.1653 33.928C83.4133 34.072 83.6073 34.27 83.7473 34.522C83.8913 34.774 83.9633 35.062 83.9633 35.386C83.9633 35.714 83.8893 36.006 83.7413 36.262C83.5933 36.514 83.3953 36.712 83.1473 36.856C82.9033 37 82.6313 37.072 82.3313 37.072ZM82.3313 36.622C82.5473 36.622 82.7413 36.568 82.9133 36.46C83.0893 36.352 83.2273 36.204 83.3273 36.016C83.4313 35.828 83.4833 35.618 83.4833 35.386C83.4833 35.154 83.4313 34.946 83.3273 34.762C83.2273 34.578 83.0893 34.432 82.9133 34.324C82.7413 34.216 82.5473 34.162 82.3313 34.162C82.1153 34.162 81.9193 34.216 81.7433 34.324C81.5713 34.432 81.4333 34.578 81.3293 34.762C81.2253 34.946 81.1733 35.154 81.1733 35.386C81.1733 35.618 81.2253 35.828 81.3293 36.016C81.4333 36.204 81.5713 36.352 81.7433 36.46C81.9193 36.568 82.1153 36.622 82.3313 36.622ZM85.5563 37L84.3023 33.784H84.8063L85.8623 36.604H85.7003L86.7623 33.784H87.2723L86.0063 37H85.5563ZM88.6108 37.072C88.4068 37.072 88.2248 37.034 88.0648 36.958C87.9048 36.878 87.7788 36.77 87.6868 36.634C87.5948 36.498 87.5488 36.342 87.5488 36.166C87.5488 35.998 87.5848 35.846 87.6568 35.71C87.7288 35.57 87.8408 35.452 87.9928 35.356C88.1448 35.26 88.3388 35.192 88.5748 35.152L89.8348 34.942V35.35L88.6828 35.542C88.4508 35.582 88.2828 35.656 88.1788 35.764C88.0788 35.872 88.0288 36 88.0288 36.148C88.0288 36.292 88.0848 36.414 88.1968 36.514C88.3128 36.614 88.4608 36.664 88.6408 36.664C88.8608 36.664 89.0528 36.618 89.2168 36.526C89.3808 36.43 89.5088 36.302 89.6008 36.142C89.6928 35.982 89.7388 35.804 89.7388 35.608V34.792C89.7388 34.6 89.6688 34.444 89.5288 34.324C89.3888 34.204 89.2068 34.144 88.9827 34.144C88.7868 34.144 88.6148 34.194 88.4668 34.294C88.3188 34.39 88.2088 34.516 88.1368 34.672L87.7288 34.45C87.7888 34.314 87.8828 34.19 88.0107 34.078C88.1428 33.966 88.2928 33.878 88.4608 33.814C88.6288 33.746 88.8028 33.712 88.9827 33.712C89.2188 33.712 89.4268 33.758 89.6068 33.85C89.7908 33.942 89.9328 34.07 90.0328 34.234C90.1368 34.394 90.1888 34.58 90.1888 34.792V37H89.7388V36.358L89.8048 36.424C89.7488 36.544 89.6608 36.654 89.5408 36.754C89.4248 36.85 89.2868 36.928 89.1268 36.988C88.9708 37.044 88.7988 37.072 88.6108 37.072ZM91.1143 37V33.784H91.5643V34.312L91.5043 34.234C91.5803 34.082 91.6943 33.962 91.8463 33.874C92.0023 33.786 92.1903 33.742 92.4103 33.742H92.6143V34.192H92.3323C92.1003 34.192 91.9143 34.264 91.7743 34.408C91.6343 34.552 91.5643 34.756 91.5643 35.02V37H91.1143ZM94.6057 37.072C94.3057 37.072 94.0337 37 93.7897 36.856C93.5497 36.708 93.3597 36.506 93.2197 36.25C93.0797 35.994 93.0097 35.704 93.0097 35.38C93.0097 35.056 93.0777 34.77 93.2137 34.522C93.3497 34.27 93.5337 34.072 93.7657 33.928C94.0017 33.784 94.2657 33.712 94.5577 33.712C94.7897 33.712 94.9957 33.756 95.1757 33.844C95.3597 33.928 95.5157 34.044 95.6437 34.192C95.7717 34.336 95.8697 34.5 95.9377 34.684C96.0057 34.864 96.0397 35.05 96.0397 35.242C96.0397 35.282 96.0377 35.328 96.0337 35.38C96.0297 35.428 96.0237 35.478 96.0157 35.53H93.2977V35.11H95.7577L95.5417 35.29C95.5777 35.07 95.5517 34.874 95.4637 34.702C95.3797 34.526 95.2577 34.388 95.0977 34.288C94.9377 34.184 94.7577 34.132 94.5577 34.132C94.3577 34.132 94.1717 34.184 93.9997 34.288C93.8317 34.392 93.6997 34.538 93.6037 34.726C93.5077 34.91 93.4697 35.13 93.4897 35.386C93.4697 35.642 93.5097 35.866 93.6097 36.058C93.7137 36.246 93.8537 36.392 94.0297 36.496C94.2097 36.6 94.4017 36.652 94.6057 36.652C94.8417 36.652 95.0397 36.596 95.1997 36.484C95.3597 36.372 95.4897 36.232 95.5897 36.064L95.9737 36.268C95.9097 36.412 95.8117 36.546 95.6797 36.67C95.5477 36.79 95.3897 36.888 95.2057 36.964C95.0257 37.036 94.8257 37.072 94.6057 37.072ZM96.8331 37V33.784H97.2831V34.408L97.1811 34.384C97.2611 34.176 97.3911 34.012 97.5711 33.892C97.7551 33.772 97.9671 33.712 98.2071 33.712C98.4351 33.712 98.6391 33.764 98.8191 33.868C99.0031 33.972 99.1471 34.116 99.2511 34.3C99.3591 34.48 99.4131 34.684 99.4131 34.912V37H98.9631V35.086C98.9631 34.89 98.9271 34.724 98.8551 34.588C98.7871 34.452 98.6891 34.348 98.5611 34.276C98.4371 34.2 98.2931 34.162 98.1291 34.162C97.9651 34.162 97.8191 34.2 97.6911 34.276C97.5631 34.348 97.4631 34.454 97.3911 34.594C97.3191 34.73 97.2831 34.894 97.2831 35.086V37H96.8331ZM102.132 37V32.98H100.896V32.53H103.836V32.98H102.612V37H102.132ZM105.405 37.072C105.105 37.072 104.833 37 104.589 36.856C104.349 36.708 104.159 36.506 104.019 36.25C103.879 35.994 103.809 35.704 103.809 35.38C103.809 35.056 103.877 34.77 104.013 34.522C104.149 34.27 104.333 34.072 104.565 33.928C104.801 33.784 105.065 33.712 105.357 33.712C105.589 33.712 105.795 33.756 105.975 33.844C106.159 33.928 106.315 34.044 106.443 34.192C106.571 34.336 106.669 34.5 106.737 34.684C106.805 34.864 106.839 35.05 106.839 35.242C106.839 35.282 106.837 35.328 106.833 35.38C106.829 35.428 106.823 35.478 106.815 35.53H104.097V35.11H106.557L106.341 35.29C106.377 35.07 106.351 34.874 106.263 34.702C106.179 34.526 106.057 34.388 105.897 34.288C105.737 34.184 105.557 34.132 105.357 34.132C105.157 34.132 104.971 34.184 104.799 34.288C104.631 34.392 104.499 34.538 104.403 34.726C104.307 34.91 104.269 35.13 104.289 35.386C104.269 35.642 104.309 35.866 104.409 36.058C104.513 36.246 104.653 36.392 104.829 36.496C105.009 36.6 105.201 36.652 105.405 36.652C105.641 36.652 105.839 36.596 105.999 36.484C106.159 36.372 106.289 36.232 106.389 36.064L106.773 36.268C106.709 36.412 106.611 36.546 106.479 36.67C106.347 36.79 106.189 36.888 106.005 36.964C105.825 37.036 105.625 37.072 105.405 37.072ZM109.102 37.072C108.786 37.072 108.508 36.998 108.268 36.85C108.028 36.702 107.84 36.502 107.704 36.25C107.568 35.994 107.5 35.706 107.5 35.386C107.5 35.066 107.568 34.78 107.704 34.528C107.84 34.276 108.028 34.078 108.268 33.934C108.508 33.786 108.786 33.712 109.102 33.712C109.302 33.712 109.49 33.748 109.666 33.82C109.842 33.892 109.998 33.99 110.134 34.114C110.27 34.234 110.372 34.374 110.44 34.534L110.032 34.744C109.952 34.572 109.83 34.432 109.666 34.324C109.502 34.216 109.314 34.162 109.102 34.162C108.89 34.162 108.698 34.216 108.526 34.324C108.358 34.428 108.224 34.574 108.124 34.762C108.028 34.946 107.98 35.156 107.98 35.392C107.98 35.624 108.028 35.834 108.124 36.022C108.224 36.206 108.358 36.352 108.526 36.46C108.698 36.568 108.89 36.622 109.102 36.622C109.314 36.622 109.5 36.568 109.66 36.46C109.824 36.352 109.948 36.208 110.032 36.028L110.44 36.25C110.372 36.406 110.27 36.546 110.134 36.67C109.998 36.794 109.842 36.892 109.666 36.964C109.49 37.036 109.302 37.072 109.102 37.072ZM111.23 37V32.458H111.68V34.408L111.578 34.384C111.658 34.176 111.788 34.012 111.968 33.892C112.152 33.772 112.364 33.712 112.604 33.712C112.832 33.712 113.036 33.764 113.216 33.868C113.4 33.972 113.544 34.116 113.648 34.3C113.756 34.48 113.81 34.684 113.81 34.912V37H113.36V35.086C113.36 34.89 113.324 34.724 113.252 34.588C113.18 34.452 113.08 34.348 112.952 34.276C112.828 34.2 112.686 34.162 112.526 34.162C112.366 34.162 112.222 34.2 112.094 34.276C111.966 34.348 111.864 34.454 111.788 34.594C111.716 34.73 111.68 34.894 111.68 35.086V37H111.23ZM114.825 37V36.34H115.305V37H114.825Z" fill="#174394"/>
</g>
<defs>
<clipPath id="clip0_1152_9171">
<rect width="158.516" height="39" fill="white"/>
</clipPath>
<clipPath id="clip1_1152_9171">
<rect width="38" height="39" fill="white"/>
</clipPath>
</defs>
</svg>
