<svg width="642" height="622" viewBox="0 0 642 622" fill="none" xmlns="http://www.w3.org/2000/svg">
<g clip-path="url(#clip0_440_3843)">
<path d="M576.58 822.478L504.762 563.776L510.164 530.296L392.02 452.66L439.89 579.548L557.919 814.138L576.58 822.478Z" fill="#4F99FD"/>
<path d="M452.834 548.332L435.677 577.774C432.87 582.594 428.32 586.153 422.966 587.718C417.612 589.283 411.862 588.734 406.901 586.184L344.004 553.866C342.449 553.071 341.071 551.971 339.951 550.632C338.831 549.293 337.992 547.742 337.484 546.072C336.976 544.402 336.81 542.646 336.995 540.91C337.181 539.174 337.714 537.494 338.563 535.968L348.83 517.434C350.187 514.961 352.45 513.111 355.144 512.272C357.837 511.433 360.751 511.671 363.272 512.936L402.334 532.585L430.328 554.232L452.834 548.332Z" fill="#4F99FD"/>
<path d="M385.264 345.485C383.988 349.494 382.99 353.586 382.277 357.732L439.455 395.961L449.815 386.505L466.865 370.904L475.898 362.652L411.045 322.384C408.877 321.036 406.31 320.478 403.778 320.806C401.246 321.133 398.905 322.326 397.152 324.182C396.789 324.578 396.424 324.952 396.042 325.416C392.417 329.579 388.356 335.946 385.264 345.485Z" fill="#CBE9F7"/>
<path d="M188.439 279.3C204.199 285.371 219.267 293.105 233.388 302.369L859.558 710.194L708.866 650.509C682.313 640.002 656.902 626.81 633.031 611.138L233.711 348.627C190.029 319.563 165.375 293.702 151.647 275.134C156.84 269.273 173.118 273.438 188.439 279.3Z" fill="#025CD4"/>
<path d="M148.996 244.967C216.705 246.203 288.369 294.883 288.369 294.883L739.636 596.932L895.264 711.913L890.543 722.476L859.54 710.186L233.388 302.369C219.278 293.113 204.223 285.385 188.476 279.317C173.146 273.473 156.877 269.29 151.683 275.151C147.693 269.832 144.075 264.244 140.855 258.427C140.092 257.029 139.709 255.456 139.744 253.865C139.779 252.273 140.232 250.718 141.055 249.356C141.879 247.994 143.046 246.872 144.44 246.101C145.833 245.331 147.404 244.94 148.996 244.967Z" fill="#8ABBFE"/>
<path d="M497.602 617.511C498.08 617.725 498.59 617.86 499.11 617.912L527.839 620.784C529.114 620.884 530.377 620.481 531.358 619.661C532.34 618.841 532.96 617.669 533.088 616.397C533.215 615.124 532.839 613.852 532.04 612.854C531.241 611.855 530.083 611.21 528.814 611.055L500.085 608.182C498.93 608.068 497.771 608.367 496.817 609.029C495.862 609.69 495.174 610.669 494.875 611.791C494.577 612.913 494.687 614.105 495.187 615.153C495.686 616.201 496.543 617.037 497.602 617.511Z" fill="#4F99FD"/>
<path d="M739.689 605.17C740.126 605.298 740.593 605.274 741.013 605.101C741.434 604.928 741.783 604.617 742.003 604.219C742.223 603.821 742.3 603.36 742.223 602.912C742.146 602.463 741.918 602.055 741.578 601.754L269.01 287.172C268.584 287.002 268.112 286.984 267.674 287.12C267.236 287.257 266.858 287.54 266.603 287.922C266.349 288.304 266.234 288.762 266.277 289.219C266.321 289.675 266.52 290.104 266.842 290.431L739.409 605.012L739.689 605.17Z" fill="#02429A"/>
<path d="M385.264 345.485L449.815 386.505L463.072 394.928L471.014 373.58L466.855 370.9L396.042 325.416C392.417 329.579 388.356 335.946 385.264 345.485Z" fill="#8ABBFE"/>
<path d="M525.984 492.94L558.979 419.118L763.867 228.589L747.233 221.154L703.49 229.72L422.432 384.617L408.949 416.72L525.984 492.94Z" fill="#CBE9F7"/>
<path d="M618.47 347.083L644.828 358.864C646.012 359.393 647.357 359.43 648.569 358.967C649.78 358.504 650.758 357.579 651.287 356.395C651.816 355.211 651.854 353.865 651.391 352.653C650.928 351.442 650.002 350.464 648.818 349.935L622.461 338.155C621.277 337.625 619.931 337.588 618.72 338.051C617.508 338.514 616.531 339.44 616.001 340.624C615.472 341.808 615.435 343.153 615.898 344.365C616.361 345.576 617.286 346.554 618.47 347.083Z" fill="#CBE9F7"/>
<path d="M583.11 381.106L609.467 392.886C610.651 393.415 611.997 393.452 613.208 392.989C614.42 392.526 615.397 391.601 615.927 390.417C616.456 389.233 616.493 387.887 616.03 386.676C615.567 385.464 614.642 384.487 613.458 383.957L587.1 372.177C585.916 371.648 584.571 371.611 583.359 372.074C582.148 372.537 581.17 373.462 580.641 374.646C580.112 375.83 580.074 377.176 580.537 378.387C581 379.599 581.926 380.577 583.11 381.106Z" fill="#CBE9F7"/>
<path d="M547.781 415.033L574.129 426.809C575.313 427.338 576.659 427.376 577.87 426.913C579.081 426.45 580.059 425.524 580.589 424.34C581.118 423.156 581.155 421.81 580.692 420.599C580.229 419.388 579.304 418.41 578.12 417.881L551.772 406.104C550.587 405.575 549.242 405.538 548.03 406.001C546.819 406.464 545.841 407.389 545.312 408.573C544.783 409.757 544.745 411.103 545.208 412.314C545.671 413.526 546.597 414.504 547.781 415.033Z" fill="#CBE9F7"/>
<path d="M225.599 263.75C224.769 264.292 223.813 264.614 222.824 264.683C221.834 264.753 220.843 264.568 219.945 264.147L189.981 250.755C189.981 250.755 202.809 253.914 208.828 256.254L225.599 263.75Z" fill="#02429A"/>
<path d="M510.164 530.296L505.682 558.042L407.399 493.413L392.02 452.66L510.164 530.296Z" fill="#02429A"/>
</g>
<defs>
<clipPath id="clip0_440_3843">
<rect width="925.16" height="618.62" fill="white" transform="translate(252.427) rotate(24.0823)"/>
</clipPath>
</defs>
</svg>
