<svg width="350" height="477" viewBox="0 0 350 477" fill="none" xmlns="http://www.w3.org/2000/svg">
<rect width="350" height="477" rx="20" fill="#02429A"/>
<mask id="mask0_1122_7586" style="mask-type:alpha" maskUnits="userSpaceOnUse" x="0" y="0" width="350" height="477">
<rect width="350" height="477" rx="20" fill="#02429A"/>
</mask>
<g mask="url(#mask0_1122_7586)">
<path d="M505.438 494.133C500.156 473.953 482.251 459.079 460.91 459.079C459.678 459.079 458.47 459.171 457.261 459.266C455.322 425.316 427.945 398.378 394.362 398.378C385.827 398.378 377.697 400.136 370.273 403.29C352.932 371.504 319.811 350 281.774 350C238.467 350 201.522 377.871 187.006 417.075C179.455 413.798 171.153 411.985 162.436 411.985C133.489 411.985 109.16 432.005 101.733 459.266C100.547 459.175 99.3582 459.079 98.1456 459.079C76.8088 459.079 58.8998 473.953 53.6181 494.133H505.438Z" fill="#1577FD"/>
<path d="M242.744 493.719C240.713 473.685 224.208 458.063 204.141 458.063C198.998 458.063 194.096 459.114 189.605 460.976C183.801 441.165 165.902 426.726 144.699 426.726C140.925 426.726 137.276 427.232 133.759 428.095C122.315 396.376 92.5665 373.761 57.6637 373.761C13.9123 373.761 -21.731 409.297 -23.3791 453.762C-40.6859 458.796 -53.5393 474.624 -54.593 493.716L242.744 493.719Z" fill="#4F99FD"/>
<path d="M392.055 497.761C389.702 484.704 378.552 474.811 365.141 474.811C359.46 474.811 354.183 476.586 349.809 479.625C346.415 471.921 338.875 466.551 330.099 466.551C320.95 466.551 313.146 472.383 309.981 480.613C305.051 475.218 298.07 471.823 290.313 471.736C284.656 454.322 268.648 441.761 249.77 441.761C230.346 441.761 213.959 455.058 208.762 473.258C205.968 472.271 202.972 471.728 199.85 471.728C185.403 471.728 173.578 483.21 172.553 497.761L392.055 497.761Z" fill="#8ABBFE"/>
<g clip-path="url(#clip0_1122_7586)">
<path d="M358.166 662.068L320.96 524.593L323.759 506.801L262.554 465.545L287.353 532.974L348.498 657.636L358.166 662.068Z" fill="#4F99FD"/>
<path d="M259.054 408.592C258.393 410.723 257.876 412.897 257.507 415.1L287.128 435.415L292.495 430.39L301.327 422.1L306.007 417.715L272.41 396.316C271.287 395.6 269.957 395.304 268.645 395.478C267.334 395.652 266.121 396.285 265.213 397.272C265.024 397.482 264.836 397.681 264.637 397.927C262.76 400.14 260.656 403.523 259.054 408.592Z" fill="#CBE9F7"/>
<path d="M157.089 373.421C165.253 376.648 173.059 380.757 180.375 385.68L504.763 602.4L426.697 570.683C412.941 565.1 399.777 558.089 387.41 549.761L180.542 410.262C157.912 394.817 145.14 381.075 138.028 371.208C140.719 368.093 149.151 370.306 157.089 373.421Z" fill="#025CD4"/>
<path d="M136.655 355.177C171.732 355.834 208.857 381.702 208.857 381.702L442.637 542.212L523.26 603.314L520.815 608.927L504.753 602.396L180.375 385.681C173.065 380.762 165.265 376.655 157.108 373.43C149.166 370.325 140.738 368.102 138.047 371.217C135.98 368.39 134.106 365.421 132.438 362.329C132.042 361.587 131.844 360.751 131.862 359.905C131.88 359.059 132.115 358.233 132.541 357.509C132.968 356.785 133.573 356.189 134.295 355.78C135.016 355.37 135.83 355.162 136.655 355.177Z" fill="#8ABBFE"/>
<path d="M442.665 546.59C442.891 546.658 443.133 546.645 443.35 546.553C443.568 546.461 443.749 546.296 443.863 546.084C443.977 545.873 444.017 545.628 443.977 545.389C443.937 545.151 443.819 544.934 443.643 544.774L198.829 377.604C198.608 377.514 198.363 377.504 198.136 377.577C197.909 377.649 197.713 377.8 197.582 378.003C197.45 378.206 197.39 378.449 197.413 378.692C197.435 378.935 197.539 379.162 197.705 379.336L442.52 546.506L442.665 546.59Z" fill="#02429A"/>
<path d="M259.054 408.592L292.495 430.39L299.362 434.866L303.477 423.522L301.323 422.098L264.637 397.927C262.76 400.14 260.656 403.523 259.054 408.592Z" fill="#8ABBFE"/>
<path d="M331.954 486.95L349.047 447.721L455.19 346.473L446.573 342.522L423.912 347.075L278.309 429.387L271.324 446.447L331.954 486.95Z" fill="#CBE9F7"/>
<path d="M343.246 445.551L356.896 451.808C357.509 452.09 358.206 452.109 358.834 451.863C359.461 451.617 359.968 451.126 360.242 450.496C360.516 449.867 360.536 449.152 360.296 448.508C360.056 447.865 359.577 447.345 358.963 447.064L345.313 440.806C344.7 440.525 344.003 440.505 343.375 440.751C342.748 440.997 342.241 441.489 341.967 442.118C341.693 442.747 341.674 443.462 341.913 444.106C342.153 444.75 342.633 445.269 343.246 445.551Z" fill="#CBE9F7"/>
<path d="M176.339 365.158C175.909 365.446 175.414 365.617 174.902 365.654C174.389 365.691 173.875 365.593 173.41 365.369L157.888 358.253C157.888 358.253 164.533 359.931 167.651 361.175L176.339 365.158Z" fill="#02429A"/>
<path d="M323.759 506.801L321.437 521.546L270.521 487.202L262.554 465.545L323.759 506.801Z" fill="#02429A"/>
</g>
<g clip-path="url(#clip1_1122_7586)">
<path d="M154.621 207.255C152.941 207.269 151.275 206.928 149.729 206.253C148.255 205.61 146.926 204.662 145.828 203.466C144.74 202.269 143.915 200.846 143.409 199.294L147.685 197.41C148.286 198.955 149.299 200.295 150.609 201.277C151.86 202.212 153.371 202.71 154.919 202.699C155.723 202.716 156.522 202.566 157.268 202.258C157.877 201.999 158.407 201.58 158.807 201.042C159.175 200.502 159.365 199.854 159.347 199.194C159.377 198.43 159.113 197.685 158.613 197.119C157.998 196.49 157.237 196.033 156.402 195.79L151.039 194.02C149.137 193.506 147.424 192.431 146.112 190.928C145.007 189.554 144.421 187.818 144.462 186.037C144.432 184.497 144.849 182.983 145.661 181.687C146.485 180.413 147.633 179.395 148.98 178.744C150.497 178.016 152.157 177.654 153.831 177.685C155.424 177.658 157.006 177.963 158.481 178.581C159.825 179.153 161.044 179.996 162.063 181.061C163.078 182.128 163.853 183.409 164.336 184.815L160.095 186.748C159.627 185.413 158.771 184.257 157.642 183.436C156.527 182.639 155.197 182.222 153.838 182.241C153.065 182.226 152.297 182.378 151.586 182.689C150.974 182.949 150.447 183.383 150.068 183.94C149.68 184.53 149.489 185.233 149.525 185.944C149.561 186.654 149.823 187.334 150.269 187.878C150.89 188.562 151.684 189.054 152.563 189.3L157.698 190.949C159.605 191.494 161.334 192.557 162.701 194.027C163.828 195.372 164.423 197.101 164.371 198.874C164.4 200.419 163.97 201.937 163.138 203.225C162.277 204.506 161.097 205.527 159.721 206.182C158.123 206.931 156.379 207.298 154.621 207.255Z" fill="white"/>
<path d="M168.494 206.793L168.494 177.65L173.449 177.65L173.449 196.749L171.571 196.173L181.168 185.866L187.28 185.866L179.748 194.29L187.432 206.793L181.806 206.793L175.112 195.946L178.036 195.327L171.889 202.137L173.428 199.024L173.428 206.793L168.494 206.793Z" fill="white"/>
<path d="M192.643 215.251C192.103 215.253 191.562 215.208 191.029 215.116C190.533 215.038 190.054 214.877 189.608 214.64L189.608 210.446C189.934 210.524 190.301 210.603 190.786 210.674C191.214 210.75 191.648 210.79 192.082 210.795C192.963 210.87 193.836 210.586 194.514 210.006C195.089 209.392 195.558 208.683 195.9 207.909L197.286 204.675L197.21 208.939L188.278 185.866L193.565 185.866L199.802 202.869L197.924 202.869L204.112 185.866L209.434 185.866L200.557 208.904C200.092 210.135 199.457 211.291 198.672 212.337C197.972 213.24 197.081 213.969 196.067 214.469C194.999 214.996 193.828 215.264 192.643 215.251Z" fill="white"/>
<path d="M212.531 206.793L212.531 178.133L224.311 178.133C225.936 178.091 227.55 178.426 229.03 179.114C230.298 179.711 231.363 180.684 232.086 181.908C232.828 183.213 233.2 184.705 233.16 186.215C233.165 187.527 232.807 188.814 232.128 189.925C231.326 191.168 230.183 192.138 228.843 192.712L228.843 190.302C230.052 190.737 231.163 191.419 232.107 192.307C232.87 193.039 233.45 193.948 233.798 194.958C234.121 195.95 234.285 196.99 234.283 198.036C234.344 199.244 234.138 200.451 233.681 201.566C233.224 202.681 232.527 203.676 231.643 204.476C229.892 206.025 227.448 206.798 224.311 206.793L212.531 206.793ZM217.666 189.25L224.595 189.25C225.513 189.288 226.408 188.951 227.083 188.312C227.395 187.992 227.639 187.61 227.8 187.189C227.961 186.769 228.035 186.318 228.019 185.867C228.039 185.424 227.966 184.982 227.804 184.571C227.643 184.16 227.397 183.79 227.083 183.486C226.388 182.868 225.486 182.55 224.568 182.597L217.638 182.597L217.666 189.25ZM217.666 202.173L224.866 202.173C226.026 202.233 227.165 201.828 228.039 201.043C228.434 200.654 228.742 200.183 228.946 199.662C229.149 199.141 229.241 198.582 229.217 198.022C229.24 197.459 229.147 196.898 228.944 196.375C228.741 195.852 228.433 195.379 228.039 194.986C227.607 194.592 227.102 194.29 226.555 194.096C226.008 193.902 225.429 193.82 224.852 193.856L217.652 193.856L217.666 202.173Z" fill="white"/>
<path d="M244.241 207.255C242.963 207.289 241.693 207.047 240.513 206.544C239.503 206.101 238.647 205.359 238.053 204.412C237.468 203.465 237.169 202.362 237.193 201.242C237.175 200.157 237.441 199.086 237.963 198.142C238.527 197.177 239.337 196.386 240.305 195.854C241.541 195.18 242.887 194.744 244.275 194.567L250.914 193.451L250.914 197.297L245.218 198.334C244.414 198.43 243.653 198.755 243.021 199.273C242.786 199.502 242.603 199.781 242.483 200.09C242.364 200.4 242.311 200.732 242.328 201.064C242.318 201.394 242.385 201.721 242.525 202.018C242.665 202.316 242.874 202.573 243.132 202.77C243.712 203.21 244.42 203.436 245.142 203.41C246.088 203.426 247.024 203.194 247.858 202.734C248.628 202.304 249.261 201.655 249.68 200.865C250.104 200.077 250.323 199.191 250.318 198.292L250.318 192.868C250.325 192.438 250.238 192.012 250.061 191.622C249.885 191.231 249.624 190.887 249.299 190.615C248.539 189.985 247.58 189.664 246.604 189.712C245.612 189.701 244.641 190.012 243.832 190.601C243.037 191.164 242.418 191.952 242.051 192.868L238.039 190.871C238.436 189.78 239.085 188.805 239.931 188.028C240.822 187.201 241.859 186.557 242.987 186.13C244.208 185.652 245.505 185.411 246.812 185.419C248.336 185.385 249.848 185.708 251.233 186.364C252.448 186.938 253.482 187.849 254.219 188.994C254.937 190.156 255.308 191.507 255.286 192.882L255.286 206.793L250.644 206.793L250.644 203.239L251.69 203.196C251.187 204.045 250.547 204.799 249.798 205.428C249.067 206.056 248.228 206.538 247.324 206.85C246.324 207.152 245.283 207.289 244.241 207.255Z" fill="white"/>
<path d="M267.565 207.255C265.56 207.303 263.584 206.747 261.883 205.656C260.313 204.652 259.128 203.123 258.529 201.327L262.237 199.543C262.71 200.654 263.469 201.612 264.433 202.315C265.35 202.974 266.446 203.322 267.565 203.31C268.305 203.345 269.035 203.131 269.644 202.699C269.891 202.514 270.092 202.271 270.228 201.99C270.364 201.709 270.433 201.399 270.427 201.085C270.442 200.716 270.329 200.353 270.109 200.061C269.88 199.768 269.594 199.526 269.27 199.351C268.886 199.145 268.482 198.983 268.064 198.867L264.731 197.908C263.239 197.549 261.886 196.736 260.851 195.576C259.972 194.539 259.498 193.204 259.52 191.83C259.497 190.633 259.83 189.458 260.477 188.461C261.145 187.476 262.066 186.698 263.137 186.215C264.369 185.654 265.705 185.378 267.053 185.404C268.85 185.37 270.62 185.863 272.153 186.826C273.614 187.757 274.725 189.167 275.306 190.828L271.557 192.633C271.219 191.709 270.599 190.921 269.79 190.387C268.967 189.835 268.001 189.548 267.018 189.563C266.327 189.522 265.643 189.717 265.071 190.117C264.844 190.294 264.662 190.525 264.541 190.79C264.421 191.055 264.365 191.346 264.378 191.638C264.373 191.983 264.478 192.32 264.676 192.598C264.893 192.906 265.184 193.151 265.521 193.309C265.926 193.51 266.345 193.678 266.775 193.813L270.039 194.809C271.512 195.206 272.853 196.004 273.92 197.119C274.837 198.145 275.334 199.494 275.306 200.886C275.325 202.073 274.986 203.238 274.336 204.22C273.65 205.206 272.716 205.983 271.633 206.466C270.349 207.028 268.961 207.297 267.565 207.255Z" fill="white"/>
<path d="M288.756 207.255C286.812 207.3 284.894 206.793 283.212 205.791C281.65 204.844 280.373 203.474 279.519 201.832C278.635 200.128 278.182 198.224 278.202 196.295C278.177 194.335 278.655 192.403 279.588 190.693C280.451 189.105 281.699 187.773 283.212 186.827C284.776 185.869 286.568 185.377 288.389 185.405C289.835 185.375 291.271 185.65 292.609 186.215C293.776 186.728 294.825 187.489 295.686 188.447C296.538 189.399 297.202 190.512 297.64 191.724C298.101 192.985 298.336 194.322 298.333 195.669C298.333 196.053 298.333 196.43 298.277 196.799C298.241 197.147 298.171 197.489 298.069 197.823L282.298 197.823L282.298 193.906L295.277 193.906L292.914 195.712C293.167 194.671 293.122 193.577 292.782 192.563C292.469 191.672 291.892 190.904 291.133 190.366C290.313 189.81 289.344 189.529 288.361 189.563C287.381 189.538 286.418 189.824 285.602 190.381C284.786 190.938 284.157 191.74 283.801 192.677C283.368 193.84 283.209 195.092 283.337 196.33C283.217 197.491 283.391 198.664 283.843 199.735C284.249 200.684 284.928 201.483 285.79 202.024C286.691 202.571 287.723 202.85 288.77 202.827C289.772 202.864 290.764 202.618 291.639 202.116C292.414 201.64 293.054 200.963 293.496 200.154L297.473 202.152C297.057 203.173 296.414 204.081 295.595 204.803C294.705 205.599 293.675 206.214 292.56 206.616C291.338 207.052 290.051 207.268 288.756 207.255Z" fill="white"/>
<g clip-path="url(#clip2_1122_7586)">
<path d="M117.797 188.345L105.248 191.256L108.515 186.384L120.845 179.884L117.797 188.345Z" fill="white"/>
<path d="M135.38 164.141C133.263 164.693 131.264 165.632 129.482 166.913C129.133 174.092 127.708 177.764 126.366 179.642C126.248 179.783 126.087 179.878 125.908 179.912C125.73 179.947 125.545 179.918 125.385 179.831C125.224 179.745 125.098 179.605 125.027 179.436C124.957 179.266 124.945 179.078 124.996 178.901C125.868 176.056 126.214 173.072 126.016 170.1C124.608 171.716 123.474 173.556 122.66 175.547C121.723 180.63 120.18 185.579 118.064 190.286L103.385 197.992L100.118 202.842L112.139 200.071C110.779 201.765 109.245 203.31 107.563 204.679C102.981 207.852 95.6929 209.044 89.1858 193.106C89.1858 193.106 93.0558 222.21 110.783 213.999C122.961 208.386 130.797 197.846 135.599 185.588C139.003 176.933 141.996 162.436 135.38 164.141ZM119.564 196.71L119.379 197.008C119.284 197.163 119.132 197.275 118.956 197.318C118.781 197.36 118.595 197.331 118.441 197.236C118.287 197.14 118.176 196.987 118.134 196.809C118.092 196.631 118.121 196.443 118.214 196.287L118.386 195.996C118.485 195.857 118.633 195.761 118.798 195.725C118.964 195.69 119.137 195.718 119.284 195.804C119.431 195.891 119.54 196.029 119.592 196.192C119.644 196.356 119.634 196.533 119.564 196.689L119.564 196.71ZM121.961 192.081L121.722 192.607C121.666 192.725 121.579 192.825 121.47 192.895C121.361 192.965 121.234 193.002 121.105 193.002C121.003 193.003 120.902 192.98 120.81 192.933C120.646 192.855 120.519 192.714 120.457 192.541C120.396 192.368 120.405 192.178 120.482 192.011L120.721 191.499C120.797 191.333 120.935 191.204 121.104 191.141C121.274 191.077 121.461 191.084 121.626 191.159C121.786 191.236 121.911 191.373 121.973 191.541C122.036 191.709 122.032 191.895 121.961 192.06L121.961 192.081ZM123.9 187.23L123.708 187.778C123.659 187.91 123.571 188.024 123.456 188.105C123.341 188.186 123.204 188.228 123.064 188.228C122.982 188.227 122.902 188.213 122.824 188.186C122.74 188.155 122.662 188.107 122.596 188.044C122.529 187.982 122.476 187.908 122.438 187.824C122.401 187.741 122.38 187.652 122.377 187.56C122.374 187.469 122.388 187.378 122.42 187.292L122.612 186.766C122.642 186.68 122.688 186.6 122.749 186.532C122.809 186.465 122.882 186.409 122.963 186.37C123.045 186.331 123.133 186.308 123.223 186.304C123.314 186.299 123.404 186.312 123.489 186.343C123.574 186.374 123.652 186.422 123.719 186.484C123.786 186.545 123.841 186.62 123.879 186.703C123.917 186.786 123.939 186.876 123.942 186.968C123.946 187.06 123.931 187.151 123.9 187.237L123.9 187.23ZM125.366 182.47L125.276 182.816C125.236 182.967 125.147 183.1 125.022 183.193C124.898 183.286 124.746 183.334 124.591 183.329C124.532 183.336 124.473 183.336 124.413 183.329C124.238 183.282 124.089 183.166 123.998 183.008C123.906 182.849 123.881 182.661 123.927 182.483L124.009 182.165C124.026 182.071 124.061 181.983 124.112 181.904C124.164 181.825 124.231 181.757 124.309 181.705C124.387 181.654 124.475 181.619 124.567 181.603C124.66 181.587 124.754 181.59 124.845 181.612C124.936 181.634 125.021 181.675 125.096 181.732C125.171 181.789 125.233 181.861 125.279 181.943C125.326 182.026 125.355 182.117 125.365 182.211C125.375 182.305 125.366 182.4 125.338 182.49L125.366 182.47Z" fill="white"/>
</g>
</g>
</g>
<defs>
<clipPath id="clip0_1122_7586">
<rect width="481.359" height="327.376" fill="white" transform="matrix(0.909018 0.416757 -0.399449 0.916755 190.237 225)"/>
</clipPath>
<clipPath id="clip1_1122_7586">
<rect width="209.126" height="52.7778" fill="white" transform="translate(89.1856 164.002)"/>
</clipPath>
<clipPath id="clip2_1122_7586">
<rect width="50.4248" height="51.1551" fill="white" transform="translate(89.1857 164.002)"/>
</clipPath>
</defs>
</svg>
