<svg width="786" height="1024" viewBox="0 0 786 1024" fill="none" xmlns="http://www.w3.org/2000/svg">
<rect x="183.059" y="43" width="568" height="938" rx="20" fill="#02429A"/>
<mask id="mask0_340_5428" style="mask-type:alpha" maskUnits="userSpaceOnUse" x="183" y="43" width="569" height="938">
<rect x="183.059" y="43" width="568" height="938" rx="20" fill="#CBE9F7"/>
</mask>
<g mask="url(#mask0_340_5428)">
<path d="M1275.9 913.676C1258.13 847.495 1197.9 798.716 1126.11 798.716C1121.97 798.716 1117.9 799.017 1113.83 799.331C1107.31 687.993 1015.22 599.652 902.246 599.652C873.536 599.652 846.185 605.418 821.214 615.76C762.878 511.521 651.461 441 523.507 441C377.823 441 253.543 532.4 204.711 660.969C179.309 650.222 151.383 644.274 122.058 644.274C24.6828 644.274 -57.1601 709.931 -82.1444 799.331C-86.132 799.03 -90.1326 798.716 -94.2117 798.716C-165.988 798.716 -226.232 847.495 -244 913.676H1275.9Z" fill="#1577FD"/>
<path d="M604.257 981.163C600.035 940.552 565.715 908.887 523.99 908.887C513.295 908.887 503.102 911.017 493.765 914.791C481.696 874.633 444.479 845.363 400.391 845.363C392.544 845.363 384.956 846.389 377.644 848.139C353.848 783.842 291.991 738 219.417 738C128.444 738 54.3304 810.033 50.9034 900.167C14.9172 910.371 -11.8091 942.456 -14 981.157L604.257 981.163Z" fill="#4F99FD"/>
<path d="M1027.45 981.758C1020.34 943.341 986.693 914.235 946.221 914.235C929.076 914.235 913.15 919.459 899.948 928.4C889.705 905.734 866.951 889.934 840.464 889.934C812.856 889.934 789.303 907.091 779.751 931.307C764.871 915.433 743.804 905.444 720.392 905.19C703.32 853.956 655.008 817 598.037 817C539.418 817 489.963 856.12 474.279 909.668C465.845 906.764 456.803 905.166 447.382 905.166C403.781 905.166 368.093 938.946 365 981.758H1027.45Z" fill="#8ABBFE"/>
<g clip-path="url(#clip0_340_5428)">
<path d="M522.639 863.478L450.821 604.776L456.222 571.296L338.078 493.66L385.949 620.548L503.978 855.138L522.639 863.478Z" fill="#4F99FD"/>
<path d="M919.167 695.84L812.189 731.392L700.905 649.166L735.433 661.509C761.044 670.663 788.092 675.136 815.286 674.712L841.532 674.318C868.938 673.903 895.884 681.384 919.155 695.867L919.167 695.84Z" fill="#02429A"/>
<path d="M398.893 589.332L381.736 618.774C378.928 623.594 374.379 627.153 369.025 628.718C363.671 630.283 357.92 629.734 352.959 627.184L290.062 594.866C288.508 594.071 287.129 592.971 286.009 591.632C284.889 590.293 284.05 588.742 283.542 587.072C283.035 585.402 282.868 583.646 283.054 581.91C283.239 580.174 283.773 578.494 284.622 576.968L294.888 558.434C296.245 555.961 298.509 554.111 301.202 553.272C303.895 552.433 306.809 552.671 309.331 553.936L348.393 573.585L376.386 595.232L398.893 589.332Z" fill="#4F99FD"/>
<path d="M331.323 386.485C330.047 390.494 329.048 394.586 328.336 398.732L385.513 436.961L395.873 427.505L412.923 411.904L421.957 403.652L357.103 363.384C354.935 362.036 352.368 361.478 349.836 361.806C347.305 362.133 344.964 363.326 343.21 365.181C342.847 365.578 342.483 365.952 342.1 366.416C338.476 370.579 334.414 376.946 331.323 386.485Z" fill="#CBE9F7"/>
<path d="M804.51 750.754L820.634 846.77L797.955 834.553L752.829 730.273L804.51 750.754Z" fill="#4F99FD"/>
<path d="M134.498 320.3C150.258 326.371 165.326 334.105 179.447 343.37L805.617 751.194L654.925 691.509C628.371 681.002 602.961 667.81 579.089 652.138L179.77 389.627C136.087 360.563 111.434 334.702 97.7053 316.135C102.899 310.274 119.176 314.438 134.498 320.3Z" fill="#025CD4"/>
<path d="M95.0544 285.967C162.763 287.203 234.427 335.883 234.427 335.883L685.695 637.932L841.323 752.913L836.602 763.476L805.598 751.186L179.447 343.37C165.337 334.113 150.281 326.385 134.534 320.317C119.205 314.473 102.935 310.29 97.7418 316.151C93.752 310.832 90.134 305.244 86.9136 299.427C86.1506 298.029 85.7676 296.456 85.8028 294.865C85.838 293.273 86.2901 291.718 87.114 290.356C87.9379 288.994 89.1048 287.872 90.4982 287.102C91.8915 286.331 93.4626 285.94 95.0544 285.967Z" fill="#8ABBFE"/>
<path d="M443.661 658.511C444.139 658.725 444.648 658.86 445.169 658.912L473.897 661.784C475.172 661.884 476.436 661.481 477.417 660.661C478.398 659.841 479.019 658.669 479.146 657.397C479.274 656.124 478.898 654.852 478.099 653.854C477.3 652.855 476.141 652.21 474.872 652.055L446.144 649.182C444.988 649.067 443.83 649.367 442.875 650.029C441.921 650.69 441.233 651.669 440.934 652.791C440.635 653.913 440.746 655.105 441.245 656.153C441.745 657.201 442.601 658.037 443.661 658.511Z" fill="#4F99FD"/>
<path d="M457.472 705.518C457.95 705.732 458.459 705.867 458.98 705.919L487.708 708.791C488.361 708.883 489.026 708.843 489.663 708.671C490.299 708.5 490.895 708.202 491.413 707.795C491.932 707.387 492.363 706.879 492.68 706.301C492.997 705.723 493.194 705.087 493.259 704.43C493.324 703.774 493.255 703.112 493.058 702.483C492.86 701.854 492.537 701.271 492.108 700.77C491.679 700.269 491.154 699.86 490.563 699.567C489.972 699.275 489.328 699.104 488.67 699.067L459.951 696.199C458.793 696.076 457.63 696.371 456.671 697.031C455.712 697.691 455.02 698.672 454.721 699.797C454.422 700.922 454.534 702.117 455.039 703.166C455.543 704.215 456.406 705.05 457.472 705.518Z" fill="#4F99FD"/>
<path d="M471.237 752.603C471.715 752.817 472.224 752.952 472.745 753.004L501.473 755.876C502.748 755.977 504.012 755.573 504.993 754.753C505.974 753.933 506.595 752.761 506.722 751.489C506.85 750.216 506.474 748.945 505.675 747.946C504.876 746.948 503.718 746.302 502.448 746.147L473.72 743.275C472.564 743.16 471.406 743.46 470.451 744.121C469.497 744.782 468.809 745.761 468.51 746.883C468.211 748.005 468.322 749.197 468.821 750.245C469.321 751.293 470.177 752.129 471.237 752.603Z" fill="#4F99FD"/>
<path d="M685.748 646.17C686.184 646.298 686.651 646.274 687.072 646.101C687.492 645.928 687.841 645.617 688.061 645.219C688.281 644.821 688.359 644.36 688.282 643.912C688.205 643.463 687.977 643.055 687.636 642.754L215.069 328.172C214.642 328.002 214.171 327.984 213.732 328.12C213.294 328.257 212.916 328.54 212.662 328.922C212.408 329.304 212.293 329.762 212.336 330.219C212.379 330.675 212.579 331.103 212.9 331.431L685.468 646.012L685.748 646.17Z" fill="#02429A"/>
<path d="M331.323 386.485L395.873 427.505L409.13 435.928L417.072 414.58L412.914 411.9L342.1 366.416C338.476 370.579 334.414 376.946 331.323 386.485Z" fill="#8ABBFE"/>
<path d="M472.042 533.94L505.037 460.118L709.926 269.589L693.292 262.154L649.549 270.72L368.49 425.617L355.007 457.72L472.042 533.94Z" fill="white"/>
<path d="M564.529 388.083L590.886 399.864C592.07 400.393 593.416 400.43 594.627 399.967C595.839 399.504 596.817 398.579 597.346 397.395C597.875 396.211 597.912 394.865 597.449 393.653C596.986 392.442 596.061 391.464 594.877 390.935L568.52 379.155C567.336 378.625 565.99 378.588 564.778 379.051C563.567 379.514 562.589 380.44 562.06 381.624C561.531 382.808 561.493 384.153 561.956 385.365C562.42 386.576 563.345 387.554 564.529 388.083Z" fill="#CBE9F7"/>
<path d="M529.168 422.106L555.525 433.886C556.709 434.415 558.055 434.453 559.267 433.99C560.478 433.527 561.456 432.601 561.985 431.417C562.514 430.233 562.552 428.887 562.089 427.676C561.625 426.465 560.7 425.487 559.516 424.957L533.159 413.177C531.975 412.648 530.629 412.611 529.418 413.074C528.206 413.537 527.228 414.462 526.699 415.646C526.17 416.83 526.133 418.176 526.596 419.387C527.059 420.599 527.984 421.577 529.168 422.106Z" fill="#CBE9F7"/>
<path d="M493.839 456.033L520.187 467.809C521.371 468.338 522.717 468.376 523.929 467.913C525.14 467.45 526.118 466.524 526.647 465.34C527.176 464.156 527.214 462.81 526.75 461.599C526.287 460.388 525.362 459.41 524.178 458.88L497.83 447.104C496.646 446.575 495.3 446.538 494.089 447.001C492.877 447.464 491.9 448.389 491.37 449.573C490.841 450.757 490.804 452.103 491.267 453.314C491.73 454.526 492.655 455.504 493.839 456.033Z" fill="#CBE9F7"/>
<path d="M456.222 571.296L451.741 599.042L353.458 534.413L338.078 493.66L456.222 571.296Z" fill="#02429A"/>
</g>
</g>
<path d="M134.498 320.3C150.258 326.371 165.326 334.105 179.447 343.369L714.058 691.509L654.924 691.509C628.371 681.002 602.961 667.81 579.089 652.138L179.769 389.627C136.087 360.563 111.434 334.702 97.7053 316.134C102.899 310.273 119.176 314.438 134.498 320.3Z" fill="#025CD4"/>
<path d="M95.0543 285.967C162.763 287.203 234.427 335.883 234.427 335.883L685.695 637.932L710.058 656.5L725.058 673L714.058 691.5L179.447 343.369C165.337 334.113 150.281 326.385 134.534 320.317C119.205 314.473 102.935 310.29 97.7417 316.151C93.7519 310.832 90.1339 305.244 86.9135 299.427C86.1505 298.029 85.7675 296.456 85.8027 294.865C85.8378 293.273 86.29 291.718 87.1139 290.356C87.9378 288.994 89.1047 287.872 90.4981 287.101C91.8914 286.331 93.4624 285.94 95.0543 285.967Z" fill="#8ABBFE"/>
<path d="M685.748 646.17C686.184 646.298 686.651 646.274 687.072 646.101C687.492 645.928 687.841 645.617 688.061 645.219C688.281 644.821 688.359 644.36 688.282 643.912C688.205 643.463 687.977 643.055 687.636 642.754L215.069 328.172C214.642 328.002 214.171 327.984 213.732 328.12C213.294 328.257 212.916 328.54 212.662 328.922C212.408 329.304 212.293 329.762 212.336 330.219C212.379 330.675 212.578 331.104 212.9 331.431L685.468 646.012L685.748 646.17Z" fill="#02429A"/>
<path d="M171.658 304.75C170.827 305.292 169.872 305.614 168.882 305.683C167.892 305.753 166.901 305.568 166.003 305.147L136.04 291.755C136.04 291.755 148.867 294.914 154.886 297.254L171.658 304.75Z" fill="#02429A"/>
<path d="M472.042 533.94L505.037 460.118L709.926 269.589L693.291 262.154L649.549 270.72L368.49 425.617L355.007 457.72L472.042 533.94Z" fill="#CBE9F7"/>
<defs>
<clipPath id="clip0_340_5428">
<rect width="925.16" height="618.62" fill="white" transform="translate(198.485 41) rotate(24.0823)"/>
</clipPath>
</defs>
</svg>
